<svg width="128" height="128" viewBox="0 0 128 128" fill="none" xmlns="http://www.w3.org/2000/svg">
<path d="M128 101.091C128 102.727 127.697 104.864 127.091 107.5C126.485 110.136 125.848 112.212 125.182 113.727C123.909 116.758 120.212 119.97 114.091 123.364C108.394 126.455 102.758 128 97.1818 128C95.5455 128 93.9394 127.894 92.3636 127.682C90.7879 127.47 89.0455 127.091 87.1364 126.545C85.2273 126 83.803 125.561 82.8636 125.227C81.9242 124.894 80.2424 124.273 77.8182 123.364C75.3939 122.455 73.9091 121.909 73.3636 121.727C67.4242 119.606 62.1212 117.091 57.4545 114.182C49.7576 109.394 41.7576 102.848 33.4545 94.5455C25.1515 86.2424 18.6061 78.2424 13.8182 70.5455C10.9091 65.8788 8.39394 60.5758 6.27273 54.6364C6.09091 54.0909 5.54545 52.6061 4.63636 50.1818C3.72727 47.7576 3.10606 46.0758 2.77273 45.1364C2.43939 44.197 2 42.7727 1.45455 40.8636C0.909091 38.9545 0.530303 37.2121 0.318182 35.6364C0.106061 34.0606 0 32.4545 0 30.8182C0 25.2424 1.54545 19.6061 4.63636 13.9091C8.0303 7.78788 11.2424 4.09091 14.2727 2.81818C15.7879 2.15152 17.8636 1.51515 20.5 0.909091C23.1364 0.30303 25.2727 0 26.9091 0C27.7576 0 28.3939 0.0909091 28.8182 0.272727C29.9091 0.636364 31.5152 2.93939 33.6364 7.18182C34.303 8.33333 35.2121 9.9697 36.3636 12.0909C37.5152 14.2121 38.5758 16.1364 39.5455 17.8636C40.5152 19.5909 41.4545 21.2121 42.3636 22.7273C42.5455 22.9697 43.0758 23.7273 43.9545 25C44.8333 26.2727 45.4848 27.3485 45.9091 28.2273C46.3333 29.1061 46.5455 29.9697 46.5455 30.8182C46.5455 32.0303 45.6818 33.5455 43.9545 35.3636C42.2273 37.1818 40.3485 38.8485 38.3182 40.3636C36.2879 41.8788 34.4091 43.4848 32.6818 45.1818C30.9545 46.8788 30.0909 48.2727 30.0909 49.3636C30.0909 49.9091 30.2424 50.5909 30.5455 51.4091C30.8485 52.2273 31.1061 52.8485 31.3182 53.2727C31.5303 53.697 31.9545 54.4242 32.5909 55.4545C33.2273 56.4849 33.5758 57.0606 33.6364 57.1818C38.2424 65.4849 43.5152 72.6061 49.4545 78.5455C55.3939 84.4849 62.5152 89.7576 70.8182 94.3636C70.9394 94.4242 71.5152 94.7727 72.5455 95.4091C73.5758 96.0455 74.303 96.4697 74.7273 96.6818C75.1515 96.8939 75.7727 97.1515 76.5909 97.4545C77.4091 97.7576 78.0909 97.9091 78.6364 97.9091C79.7273 97.9091 81.1212 97.0455 82.8182 95.3182C84.5152 93.5909 86.1212 91.7121 87.6364 89.6818C89.1515 87.6515 90.8182 85.7727 92.6364 84.0455C94.4545 82.3182 95.9697 81.4545 97.1818 81.4545C98.0303 81.4545 98.8939 81.6667 99.7727 82.0909C100.652 82.5152 101.727 83.1667 103 84.0455C104.273 84.9242 105.03 85.4545 105.273 85.6364C106.788 86.5455 108.409 87.4849 110.136 88.4545C111.864 89.4242 113.788 90.4849 115.909 91.6364C118.03 92.7879 119.667 93.697 120.818 94.3636C125.061 96.4849 127.364 98.0909 127.727 99.1818C127.909 99.6061 128 100.242 128 101.091Z" fill="#F8F8F8"/>
</svg>
