<svg width="36" height="36" viewBox="0 0 36 36" fill="none" xmlns="http://www.w3.org/2000/svg">
<path d="M18 2C14.8355 2 11.7421 2.93838 9.11088 4.69649C6.4797 6.45459 4.42894 8.95345 3.21793 11.8771C2.00693 14.8007 1.69008 18.0177 2.30744 21.1214C2.92481 24.2251 4.44866 27.0761 6.6863 29.3137C8.92394 31.5513 11.7749 33.0752 14.8786 33.6926C17.9823 34.3099 21.1993 33.9931 24.1229 32.7821C27.0466 31.5711 29.5454 29.5203 31.3035 26.8891C33.0616 24.2579 34 21.1645 34 18C34 13.7565 32.3143 9.68687 29.3137 6.68629C26.3131 3.68571 22.2435 2 18 2V2ZM18 32C15.2311 32 12.5243 31.1789 10.222 29.6406C7.91974 28.1022 6.12532 25.9157 5.06569 23.3576C4.00607 20.7994 3.72882 17.9845 4.26901 15.2687C4.80921 12.553 6.14258 10.0584 8.10051 8.1005C10.0584 6.14257 12.553 4.8092 15.2687 4.26901C17.9845 3.72881 20.7994 4.00606 23.3576 5.06569C25.9157 6.12531 28.1022 7.91973 29.6406 10.222C31.1789 12.5243 32 15.2311 32 18C32 21.713 30.525 25.274 27.8995 27.8995C25.274 30.525 21.713 32 18 32Z" fill="#E6AD60"/>
<path d="M27.9999 12.1C27.8126 11.9137 27.5591 11.8092 27.2949 11.8092C27.0308 11.8092 26.7773 11.9137 26.5899 12.1L15.4899 23.15L9.48994 17.15C9.30694 16.9524 9.05294 16.8356 8.78383 16.8253C8.51471 16.815 8.25252 16.912 8.05494 17.095C7.85735 17.278 7.74055 17.532 7.73024 17.8011C7.71992 18.0702 7.81694 18.3324 7.99994 18.53L15.4899 26L27.9999 13.52C28.0937 13.427 28.1681 13.3164 28.2188 13.1946C28.2696 13.0727 28.2957 12.942 28.2957 12.81C28.2957 12.678 28.2696 12.5473 28.2188 12.4254C28.1681 12.3036 28.0937 12.193 27.9999 12.1Z" fill="#E6AD60"/>
</svg>
