<?xml version="1.0" encoding="UTF-8"?> <svg xmlns="http://www.w3.org/2000/svg" width="129" height="129" viewBox="0 0 129 129" fill="none"> <g filter="url(#filter0_d)"> <circle cx="64.0719" cy="60.0719" r="49.0719" fill="url(#paint0_linear)"></circle> </g> <path d="M91.6329 82.7482H88.944V65.8606C88.9437 65.3697 88.542 64.9721 88.0471 64.9724C87.755 64.9726 87.4813 65.114 87.3137 65.3513L74.7656 83.1277C74.4819 83.53 74.5809 84.0842 74.9865 84.3654C75.137 84.4697 75.316 84.5257 75.4997 84.5258H87.1514V87.1923C87.1514 87.6831 87.5528 88.0811 88.0477 88.0811C88.5427 88.0811 88.944 87.6831 88.944 87.1923V84.5258H91.6329C92.1279 84.5258 92.5292 84.1278 92.5292 83.637C92.5292 83.1461 92.1279 82.7482 91.6329 82.7482ZM87.1514 82.7482H77.2205L87.1514 68.6799V82.7482Z" fill="white"></path> <path d="M75.4996 86.3032H64.8884L74.7539 74.7832C74.7763 74.7568 74.7972 74.7292 74.8166 74.7005C76.6726 71.9765 76.0544 68.2885 73.4095 66.3065C70.1935 64.015 65.7131 64.7429 63.4025 67.9321C62.5262 69.1414 62.055 70.593 62.0552 72.0821C62.0552 72.5729 62.4566 72.9709 62.9515 72.9709C63.4465 72.9709 63.8478 72.5729 63.8478 72.0821C63.8475 69.1367 66.255 66.7489 69.225 66.7486C70.3508 66.7485 71.4481 67.0987 72.3626 67.75C74.2153 69.1577 74.6468 71.7504 73.3485 73.674L62.2686 86.617C61.9483 86.9913 61.9946 87.5521 62.3721 87.8698C62.534 88.006 62.7392 88.0807 62.9515 88.0808H75.4996C75.9946 88.0808 76.3959 87.6829 76.3959 87.192C76.3959 86.7012 75.9946 86.3032 75.4996 86.3032Z" fill="white"></path> <path d="M62.9713 81.8761C62.99 81.3856 62.604 80.9729 62.1094 80.9544C62.1093 80.9544 62.1091 80.9544 62.109 80.9544C50.4158 80.524 41.0306 71.2337 40.5757 59.6387H44.1294C44.6244 59.6387 45.0257 59.2407 45.0257 58.7499C45.0257 58.259 44.6244 57.861 44.1294 57.861H40.5757C41.0241 46.2865 50.3833 37.0056 62.0553 36.5613V39.1958C62.0553 39.6867 62.4566 40.0846 62.9515 40.0846C63.4465 40.0846 63.8478 39.6867 63.8478 39.1958V36.5613C75.36 37.0029 84.6514 46.0428 85.3158 57.4486L81.8202 53.9822C81.4642 53.6411 80.8968 53.6509 80.5529 54.004C80.2175 54.3484 80.2175 54.8945 80.5529 55.239L85.556 60.2004C85.6502 60.3135 85.7717 60.4012 85.9091 60.4555C85.9442 60.466 85.9798 60.4746 86.0158 60.4813C86.0773 60.5033 86.1409 60.5185 86.2058 60.5266C86.2148 60.5266 86.2228 60.5266 86.2318 60.5266C86.2407 60.5266 86.2488 60.5266 86.2569 60.5266C86.3251 60.5215 86.3926 60.5084 86.4577 60.4875C86.4945 60.4831 86.531 60.4763 86.567 60.4671C86.6883 60.4243 86.7988 60.3557 86.8906 60.2662L91.9618 55.239C92.3056 54.8859 92.2959 54.3233 91.9398 53.9822C91.5925 53.6496 91.0418 53.6496 90.6944 53.9822L87.1119 57.5322C86.4717 44.792 75.8783 34.7829 63.0152 34.7642C62.9928 34.7633 62.9739 34.7517 62.9515 34.7517C62.9291 34.7517 62.9103 34.7633 62.8879 34.7642C49.5724 34.7823 38.7825 45.4822 38.7642 58.6868C38.7642 58.709 38.7517 58.7276 38.7517 58.7499C38.7517 58.7721 38.7634 58.7908 38.7642 58.813C38.7865 71.6917 49.0648 82.2523 62.0427 82.7311H62.0759C62.5575 82.731 62.953 82.3534 62.9713 81.8761Z" fill="white"></path> <path d="M74.9932 46.8086C74.6432 46.4616 74.0758 46.4616 73.7258 46.8086L64.0943 56.3589C63.3666 56.0372 62.5354 56.0372 61.8078 56.3589L57.2475 51.8366C56.8915 51.4957 56.324 51.5054 55.9802 51.8585C55.6447 52.2029 55.6447 52.749 55.9802 53.0934L60.5315 57.6069C59.8925 58.9334 60.4589 60.5226 61.7968 61.1562C62.8236 61.6427 64.0481 61.4341 64.8525 60.636C65.6613 59.8407 65.8696 58.623 65.3706 57.6077L74.9932 48.0654C75.3431 47.7183 75.3431 47.1557 74.9932 46.8086ZM63.5854 59.3781C63.5853 59.3782 63.5853 59.3782 63.5852 59.3783C63.2307 59.7144 62.6723 59.7144 62.3178 59.3783C61.9677 59.0312 61.9677 58.4685 62.3176 58.1213C62.6676 57.7741 63.2351 57.7741 63.5852 58.121C63.9353 58.4681 63.9353 59.031 63.5854 59.3781Z" fill="white"></path> <defs> <filter id="filter0_d" x="0" y="0" width="128.144" height="128.144" filterUnits="userSpaceOnUse" color-interpolation-filters="sRGB"> <feFlood flood-opacity="0" result="BackgroundImageFix"></feFlood> <feColorMatrix in="SourceAlpha" type="matrix" values="0 0 0 0 0 0 0 0 0 0 0 0 0 0 0 0 0 0 127 0"></feColorMatrix> <feOffset dy="4"></feOffset> <feGaussianBlur stdDeviation="7.5"></feGaussianBlur> <feColorMatrix type="matrix" values="0 0 0 0 0 0 0 0 0 0 0 0 0 0 0 0 0 0 0.25 0"></feColorMatrix> <feBlend mode="normal" in2="BackgroundImageFix" result="effect1_dropShadow"></feBlend> <feBlend mode="normal" in="SourceGraphic" in2="effect1_dropShadow" result="shape"></feBlend> </filter> <linearGradient id="paint0_linear" x1="64.0719" y1="11" x2="64.0719" y2="109.144" gradientUnits="userSpaceOnUse"> <stop stop-color="#4D5060"></stop> <stop offset="1" stop-color="#0F101A"></stop> </linearGradient> </defs> </svg> 