<?xml version="1.0" encoding="UTF-8"?> <svg xmlns="http://www.w3.org/2000/svg" xmlns:xlink="http://www.w3.org/1999/xlink" xmlns:svgjs="http://svgjs.com/svgjs" width="512" height="512" x="0" y="0" viewBox="0 0 64 64" style="enable-background:new 0 0 512 512" xml:space="preserve" class=""> <g> <g xmlns="http://www.w3.org/2000/svg" id="outline"> <path d="M3,62H61a1,1,0,0,0,.948-1.316L60,54.839V35a.976.976,0,0,0-.183-.545L56.868,30H59a1,1,0,0,0,1-1V7a1,1,0,0,0-1-1H54V3a1,1,0,0,0-1-1H49a1,1,0,0,0-1,1V6H43a1,1,0,0,0-1,1V28H39.858A3.939,3.939,0,0,0,40,27a4.08,4.08,0,0,0-2-3.669V23a4,4,0,0,0-4-4h-.33A4.084,4.084,0,0,0,30,17a3.5,3.5,0,0,0-2,.716A3.5,3.5,0,0,0,26,17a4.084,4.084,0,0,0-3.67,2H22a4,4,0,0,0-4,4v.331A4.08,4.08,0,0,0,16,27a3.939,3.939,0,0,0,.142,1H10a1,1,0,0,0-.769.36L4.242,34.368A.983.983,0,0,0,4,35V54.839L2.052,60.684A1,1,0,0,0,3,62ZM50,4h2V6H50ZM44,8H58V24H56V21a5,5,0,0,0-2.207-4.145,4,4,0,1,0-5.586,0A5,5,0,0,0,46,21v3H44Zm7,10a3,3,0,0,1,3,3v3H48V21A3,3,0,0,1,51,18Zm-2-4a2,2,0,1,1,2,2A2,2,0,0,1,49,14ZM44,26H58v2H44ZM19.262,24.965A1,1,0,0,0,20,24V23a2,2,0,0,1,2-2h1a1,1,0,0,0,.965-.738A2,2,0,0,1,26,19a2.545,2.545,0,0,1,1.33.743,1,1,0,0,0,1.34,0A2.545,2.545,0,0,1,30,19a2,2,0,0,1,2.035,1.262A1,1,0,0,0,33,21h1a2,2,0,0,1,2,2v1a1,1,0,0,0,.738.965A2.107,2.107,0,0,1,36,29a2.545,2.545,0,0,1-1.33-.743,1,1,0,0,0-1.565.3,1.139,1.139,0,0,1-1.658.552,1,1,0,0,0-1.292.359c-.164.259-.816.536-2.155.536s-1.991-.277-2.155-.536A1,1,0,0,0,25,29a.992.992,0,0,0-.491.13,1.294,1.294,0,0,1-.9.186,1.435,1.435,0,0,1-.709-.763,1,1,0,0,0-1.565-.3A2.545,2.545,0,0,1,20,29a2.107,2.107,0,0,1-.738-4.035ZM10.469,30h6.913A3.966,3.966,0,0,0,20,31a3.34,3.34,0,0,0,1.774-.565,2.814,2.814,0,0,0,1.247.794,2.932,2.932,0,0,0,1.744-.039A5.362,5.362,0,0,0,28,32a5.281,5.281,0,0,0,3.28-.845,3.081,3.081,0,0,0,2.92-.737A3.346,3.346,0,0,0,36,31a3.966,3.966,0,0,0,2.618-1H54.465l2.667,4h-50ZM6,36H58v2H6Zm51.479,6.622a5.247,5.247,0,0,0-4.958,0A2.581,2.581,0,0,1,51,43a5.828,5.828,0,0,1-2.167-.443A7.768,7.768,0,0,0,46,42a4.5,4.5,0,0,0-2.479.622,3.249,3.249,0,0,1-3.042,0A4.319,4.319,0,0,0,39,42.077V40H58v2.868A3.255,3.255,0,0,1,57.479,42.622ZM58,44.92V50H39V44.137a3.317,3.317,0,0,1,.521.241,5.251,5.251,0,0,0,4.958,0A2.582,2.582,0,0,1,46,44a5.828,5.828,0,0,1,2.167.443A7.768,7.768,0,0,0,51,45a4.488,4.488,0,0,0,2.479-.623,3.253,3.253,0,0,1,3.042,0A4.375,4.375,0,0,0,58,44.92ZM33,44V42H31v2H29v2h2v4H27V40H37V50H33V46h2V44ZM6,40H25v2.905a8.165,8.165,0,0,1-1.167-.348A7.768,7.768,0,0,0,21,42a4.5,4.5,0,0,0-2.479.622A2.582,2.582,0,0,1,17,43a2.582,2.582,0,0,1-1.521-.378A4.512,4.512,0,0,0,13,42a4.512,4.512,0,0,0-2.479.622A2.582,2.582,0,0,1,9,43a2.582,2.582,0,0,1-1.521-.378A4.311,4.311,0,0,0,6,42.077Zm0,4.137a3.317,3.317,0,0,1,.521.241A4.506,4.506,0,0,0,9,45a4.512,4.512,0,0,0,2.479-.622A2.582,2.582,0,0,1,13,44a2.582,2.582,0,0,1,1.521.378A4.512,4.512,0,0,0,17,45a4.5,4.5,0,0,0,2.479-.622A2.582,2.582,0,0,1,21,44a5.828,5.828,0,0,1,2.167.443A9.059,9.059,0,0,0,25,44.927V50H6ZM6,52H58v2H6Zm-.279,4H58.279l1.333,4H4.388Z" fill="#252d5a" data-original="#000000" style="" class=""></path> <rect x="27" y="22" width="2" height="2" fill="#252d5a" data-original="#000000" style="" class=""></rect> <rect x="25" y="24" width="2" height="2" fill="#252d5a" data-original="#000000" style="" class=""></rect> <rect x="29" y="24" width="2" height="2" fill="#252d5a" data-original="#000000" style="" class=""></rect> <rect x="27" y="26" width="2" height="2" fill="#252d5a" data-original="#000000" style="" class=""></rect> </g> </g> </svg> 