<?xml version="1.0" encoding="UTF-8"?> <svg xmlns="http://www.w3.org/2000/svg" width="129" height="129" viewBox="0 0 129 129" fill="none"> <g filter="url(#filter0_d)"> <circle cx="64.0719" cy="60.0719" r="49.0719" fill="url(#paint0_linear)"></circle> </g> <g clip-path="url(#clip0)"> <path d="M83.0621 34.7517H50.2249V39.8949H45.0818V85.3921H77.9189V80.249H83.0621V34.7517ZM46.2686 84.2052V41.0818H68.8195V48.9943H76.732V84.2052H46.2686ZM70.0063 41.921L75.8928 47.8074H70.0063V41.921ZM81.8752 79.0621H77.9189V48.1551L69.6587 39.8949H51.4118V35.9386H81.8752V79.0621Z" fill="white"></path> <path d="M50.4227 46.2249H59.9178V47.4117H50.4227V46.2249Z" fill="white"></path> <path d="M50.4227 49.3899H56.7528V50.5768H50.4227V49.3899Z" fill="white"></path> <path d="M50.4227 54.1375H72.5779V55.3243H50.4227V54.1375Z" fill="white"></path> <path d="M50.4227 57.3025H72.5779V58.4894H50.4227V57.3025Z" fill="white"></path> <path d="M50.4227 63.6326H72.5779V64.8195H50.4227V63.6326Z" fill="white"></path> <path d="M50.4227 66.7976H66.2479V67.9845H50.4227V66.7976Z" fill="white"></path> <path d="M50.4227 60.4675H72.5779V61.6544H50.4227V60.4675Z" fill="white"></path> <path d="M64.6653 71.5452H72.5779V72.7321H64.6653V71.5452Z" fill="white"></path> </g> <defs> <filter id="filter0_d" x="0" y="0" width="128.144" height="128.144" filterUnits="userSpaceOnUse" color-interpolation-filters="sRGB"> <feFlood flood-opacity="0" result="BackgroundImageFix"></feFlood> <feColorMatrix in="SourceAlpha" type="matrix" values="0 0 0 0 0 0 0 0 0 0 0 0 0 0 0 0 0 0 127 0"></feColorMatrix> <feOffset dy="4"></feOffset> <feGaussianBlur stdDeviation="7.5"></feGaussianBlur> <feColorMatrix type="matrix" values="0 0 0 0 0 0 0 0 0 0 0 0 0 0 0 0 0 0 0.25 0"></feColorMatrix> <feBlend mode="normal" in2="BackgroundImageFix" result="effect1_dropShadow"></feBlend> <feBlend mode="normal" in="SourceGraphic" in2="effect1_dropShadow" result="shape"></feBlend> </filter> <linearGradient id="paint0_linear" x1="64.0719" y1="11" x2="64.0719" y2="109.144" gradientUnits="userSpaceOnUse"> <stop stop-color="#4D5060"></stop> <stop offset="1" stop-color="#0F101A"></stop> </linearGradient> <clipPath id="clip0"> <rect width="50.6404" height="50.6404" fill="white" transform="translate(38.7517 34.7517)"></rect> </clipPath> </defs> </svg> 