<?xml version="1.0" encoding="UTF-8"?> <svg xmlns="http://www.w3.org/2000/svg" width="129" height="129" viewBox="0 0 129 129" fill="none"> <g filter="url(#filter0_d)"> <circle cx="64.0719" cy="60.0719" r="49.0719" fill="url(#paint0_linear)"></circle> </g> <path d="M89.8613 64.5185H87.1934V62.6546C88.7168 62.3167 89.8613 60.9587 89.8613 59.3358C89.8613 58.4269 89.5073 57.5714 88.8644 56.9285L86.3041 54.3682L83.7439 56.9285C83.1009 57.5714 82.747 58.426 82.747 59.3358C82.747 60.9587 83.8915 62.3167 85.4148 62.6546V64.5185H80.9684V35.172C80.9684 33.7011 79.7714 32.5042 78.3005 32.5042H49.8433C48.3724 32.5042 47.1754 33.7011 47.1754 35.172V64.5185H42.729V62.6546C44.2523 62.3167 45.3969 60.9587 45.3969 59.3358C45.3969 58.4269 45.0429 57.5714 44.4 56.9285L41.8397 54.3682L39.2794 56.9285C38.6365 57.5714 38.2825 58.426 38.2825 59.3358C38.2825 60.9587 39.4271 62.3167 40.9504 62.6546V64.5185H38.2825C37.3017 64.5185 36.504 65.3162 36.504 66.2971V84.0829C36.504 85.0638 37.3017 85.8615 38.2825 85.8615H44.5227C44.5147 86.1549 44.5076 86.4484 44.5076 86.7507V87.64H53.4004C54.3813 87.64 55.179 86.8423 55.179 85.8615V82.3043H72.9648V85.8615C72.9648 86.8423 73.7625 87.64 74.7434 87.64H83.6362V86.7507C83.6362 86.4484 83.6291 86.1549 83.6211 85.8615H89.8613C90.8422 85.8615 91.6398 85.0638 91.6398 84.0829V66.2971C91.6398 65.3162 90.8422 64.5185 89.8613 64.5185ZM84.5255 59.3358C84.5255 58.908 84.699 58.4883 85.0013 58.1859L86.3041 56.8831L87.6069 58.1859C87.9093 58.4883 88.0827 58.9071 88.0827 59.3358C88.0827 60.2322 87.3535 60.9614 86.4571 60.9614H86.1512C85.2548 60.9614 84.5255 60.2322 84.5255 59.3358ZM40.0611 59.3358C40.0611 58.908 40.2345 58.4883 40.5369 58.1859L41.8397 56.8831L43.1425 58.1859C43.4449 58.4883 43.6183 58.9071 43.6183 59.3358C43.6183 60.2322 42.8891 60.9614 41.9927 60.9614H41.6867C40.7903 60.9614 40.0611 60.2322 40.0611 59.3358ZM45.3969 75.19V71.6328H82.747L82.7487 75.19H45.3969ZM48.954 45.3224L59.9936 34.2827H63.7037L48.954 49.0325V45.3224ZM52.5112 39.2503V37.8399H53.9216L52.5112 39.2503ZM52.5112 47.9902L57.8389 42.6625C57.8149 42.6918 57.7873 42.7167 57.7642 42.7461C56.6704 44.112 56.0683 45.8284 56.0683 47.5794C56.0683 49.1134 56.6899 50.6136 57.774 51.6977L58.946 52.8697C59.2804 54.0356 60.0016 55.0369 60.9621 55.7297L60.6713 56.8947L59.0981 57.2877C57.9803 57.5661 56.9612 58.1441 56.1492 58.9569C54.9496 60.1566 54.2897 61.7502 54.2897 63.4452V66.2971H52.5112V47.9902ZM61.2377 58.5852L62.6757 59.5439L61.7286 60.4909L60.9905 58.6466L61.2377 58.5852ZM66.9061 58.5852L67.1524 58.6466L66.4143 60.4909L65.4672 59.5439L66.9061 58.5852ZM65.7251 57.2344L64.0719 58.3371L62.4187 57.2353L62.5957 56.5265C63.0652 56.6617 63.5597 56.739 64.0719 56.739C64.5841 56.739 65.0786 56.6626 65.5481 56.5265L65.7251 57.2344ZM64.0719 54.9596C62.1101 54.9596 60.5148 53.3642 60.5148 51.4024L60.5139 49.3757C61.8238 48.94 63.0439 48.2285 64.0719 47.3046C65.0999 48.2285 66.32 48.94 67.6299 49.3757H67.6291V51.4024C67.6291 53.3642 66.0337 54.9596 64.0719 54.9596ZM68.1911 47.687C66.9754 47.2823 65.8523 46.5887 64.9443 45.6807L64.0719 44.8092L63.2004 45.6807C62.2924 46.5887 61.1693 47.2823 59.9518 47.6879C59.2244 47.9315 58.7362 48.6092 58.7362 49.3757V50.0792C58.1759 49.3686 57.8469 48.4882 57.8469 47.5794C57.8469 46.2303 58.3102 44.9088 59.1533 43.8568C60.2898 42.4348 61.9865 41.6194 63.806 41.6194H64.3378C66.1582 41.6194 67.8541 42.4348 68.9915 43.8568C69.8336 44.9088 70.2969 46.2312 70.2969 47.5794C70.2969 48.4873 69.9679 49.3686 69.4076 50.0792V49.3757C69.4076 48.6092 68.9194 47.9315 68.1911 47.687ZM56.0683 63.4452C56.0683 62.2251 56.5432 61.0779 57.4076 60.2144C57.9234 59.6968 58.561 59.3215 59.2573 59.1001L61.0795 63.6559L63.1826 61.5528V64.5185H64.9612V61.5528L67.0644 63.6559L68.8865 59.1001C69.5828 59.3215 70.2196 59.6959 70.7371 60.2144C71.6006 61.0779 72.0755 62.2251 72.0755 63.4452V66.2971H56.0683V63.4452ZM71.9955 58.9569C71.1827 58.1441 70.1626 57.567 69.0457 57.2877L67.4725 56.8947L67.1817 55.7297C68.1422 55.0369 68.8634 54.0365 69.1978 52.8697L70.3698 51.6977C71.4539 50.6136 72.0755 49.1134 72.0755 47.5794C72.0755 45.8284 71.4735 44.112 70.3805 42.7452C68.9034 40.8999 66.7006 39.8408 64.3378 39.8408H63.806C61.9883 39.8408 60.2684 40.4731 58.898 41.6025L62.6615 37.8399H75.6327V66.2971H73.8541V63.4452C73.8541 61.7502 73.1942 60.1566 71.9955 58.9569ZM79.1898 35.172V68.965C79.1898 69.4559 78.7914 69.8543 78.3005 69.8543H49.8433C49.3524 69.8543 48.954 69.4559 48.954 68.965V51.5474L50.7326 49.7688V66.2971C50.7326 67.278 51.5303 68.0757 52.5112 68.0757H75.6327C76.6135 68.0757 77.4112 67.278 77.4112 66.2971V37.8399C77.4112 36.859 76.6135 36.0613 75.6327 36.0613H64.4401L66.2187 34.2827H78.3005C78.7914 34.2827 79.1898 34.6811 79.1898 35.172ZM49.8433 34.2827H57.4787L55.7001 36.0613H52.5112C51.5303 36.0613 50.7326 36.859 50.7326 37.8399V41.0289L48.954 42.8074V35.172C48.954 34.6811 49.3524 34.2827 49.8433 34.2827ZM38.2825 84.0829V66.2971H47.1754V68.965C47.1754 69.278 47.2395 69.575 47.3391 69.8543H45.3969C44.416 69.8543 43.6183 70.652 43.6183 71.6328V75.19C43.6183 76.1709 44.416 76.9686 45.3969 76.9686H45.9331C45.5027 78.3648 44.8651 80.8788 44.6152 84.0829H38.2825ZM74.7434 85.8615V82.3043C74.7434 81.3234 73.9457 80.5257 72.9648 80.5257H55.179C54.1981 80.5257 53.4004 81.3234 53.4004 82.3043V85.8615H46.2986C46.4195 81.5555 47.3826 78.2323 47.8042 76.9686H80.3405C80.7621 78.2323 81.7252 81.5555 81.8461 85.8615H74.7434ZM89.8613 84.0829H83.5286C83.2788 80.8788 82.6411 78.3648 82.2107 76.9686H82.747C83.7278 76.9686 84.5255 76.1709 84.5255 75.19V71.6328C84.5255 70.652 83.7278 69.8543 82.747 69.8543H80.8048C80.9044 69.575 80.9684 69.278 80.9684 68.965V66.2971H89.8613V84.0829Z" fill="#EFEFEF"></path> <defs> <filter id="filter0_d" x="0" y="0" width="128.144" height="128.144" filterUnits="userSpaceOnUse" color-interpolation-filters="sRGB"> <feFlood flood-opacity="0" result="BackgroundImageFix"></feFlood> <feColorMatrix in="SourceAlpha" type="matrix" values="0 0 0 0 0 0 0 0 0 0 0 0 0 0 0 0 0 0 127 0"></feColorMatrix> <feOffset dy="4"></feOffset> <feGaussianBlur stdDeviation="7.5"></feGaussianBlur> <feColorMatrix type="matrix" values="0 0 0 0 0 0 0 0 0 0 0 0 0 0 0 0 0 0 0.25 0"></feColorMatrix> <feBlend mode="normal" in2="BackgroundImageFix" result="effect1_dropShadow"></feBlend> <feBlend mode="normal" in="SourceGraphic" in2="effect1_dropShadow" result="shape"></feBlend> </filter> <linearGradient id="paint0_linear" x1="64.0719" y1="11" x2="64.0719" y2="109.144" gradientUnits="userSpaceOnUse"> <stop stop-color="#4D5060"></stop> <stop offset="1" stop-color="#0F101A"></stop> </linearGradient> </defs> </svg> 