<?xml version="1.0" encoding="UTF-8"?> <svg xmlns="http://www.w3.org/2000/svg" width="129" height="129" viewBox="0 0 129 129" fill="none"> <g filter="url(#filter0_d)"> <circle cx="64.0719" cy="60.0719" r="49.0719" fill="url(#paint0_linear)"></circle> </g> <g clip-path="url(#clip0)"> <path d="M68.4119 65.5203H59.7321C59.2788 65.5203 58.9115 65.8788 58.9115 66.3211C58.9115 66.7634 59.2788 67.122 59.7321 67.122H68.4119C68.8652 67.122 69.2325 66.7634 69.2325 66.3211C69.2325 65.8788 68.8652 65.5203 68.4119 65.5203Z" fill="white"></path> <path d="M68.4119 68.7058H59.7321C59.2788 68.7058 58.9115 69.0644 58.9115 69.5067C58.9115 69.949 59.2788 70.3076 59.7321 70.3076H68.4119C68.8652 70.3076 69.2325 69.949 69.2325 69.5067C69.2325 69.0644 68.8652 68.7058 68.4119 68.7058Z" fill="white"></path> <path d="M90.1656 77.6217H87.1574V74.8797C87.1574 73.7315 86.2003 72.7974 85.0239 72.7974H83.4921V48.328C83.4921 37.8767 74.7803 29.374 64.072 29.374H64.0719C53.3636 29.374 44.6518 37.8767 44.6518 48.328V72.7973H43.1199C41.9435 72.7973 40.9864 73.7314 40.9864 74.8796V77.6216H37.9782C36.9221 77.6217 36.0628 78.4603 36.0628 79.4911V82.1784C36.0628 83.2092 36.9221 84.0478 37.9782 84.0478H62.1572C62.6105 84.0478 62.9778 83.6892 62.9778 83.2469C62.9778 82.8046 62.6105 82.446 62.1572 82.446H37.9782C37.827 82.446 37.704 82.3259 37.704 82.1784V79.4911C37.704 79.3435 37.827 79.2235 37.9782 79.2235H90.1656C90.3168 79.2235 90.4398 79.3436 90.4398 79.4911V82.1784C90.4398 82.326 90.3168 82.446 90.1656 82.446H65.9866C65.5333 82.446 65.166 82.8046 65.166 83.2469C65.166 83.6892 65.5333 84.0478 65.9866 84.0478H90.1656C91.2217 84.0478 92.081 83.2091 92.081 82.1784V79.4911C92.081 78.4603 91.2217 77.6217 90.1656 77.6217ZM46.293 48.328C46.293 38.7599 54.2685 30.9758 64.072 30.9758C73.8754 30.9758 81.8509 38.7599 81.8509 48.328V72.7973H80.2097V48.328C80.2097 39.6431 72.9703 32.5775 64.0719 32.5775C55.1735 32.5775 47.9341 39.6431 47.9341 48.328V72.7973H46.293V48.328ZM78.5685 72.7974H49.5753V48.328C49.5753 40.5264 56.0784 34.1793 64.0719 34.1793C72.0654 34.1793 78.5685 40.5264 78.5685 48.328V72.7974ZM42.6275 77.6217V74.8797C42.6275 74.6192 42.853 74.3992 43.1199 74.3992H85.0239C85.2908 74.3992 85.5163 74.6192 85.5163 74.8797V77.6217H42.6275Z" fill="white"></path> <path d="M71.8164 45.4378H66.7943V40.5361C66.7943 39.6412 66.0483 38.9131 65.1313 38.9131H63.0128C62.096 38.9131 61.35 39.6411 61.35 40.5361V45.4378H56.3277C55.4108 45.4378 54.6648 46.1659 54.6648 47.0609V49.1285C54.6648 50.0235 55.4108 50.7515 56.3277 50.7515H61.35V61.6725C61.35 62.5675 62.096 63.2955 63.0128 63.2955H65.1313C66.0483 63.2955 66.7943 62.5675 66.7943 61.6725V57.2258C66.7943 56.7835 66.427 56.4249 65.9737 56.4249C65.5204 56.4249 65.1531 56.7835 65.1531 57.2258V61.6725C65.1531 61.6843 65.1433 61.6938 65.1313 61.6938H63.0128C63.0009 61.6938 62.9911 61.6843 62.9911 61.6725V50.2911C62.9911 49.6617 62.4665 49.1498 61.8218 49.1498H56.3277C56.3158 49.1498 56.306 49.1403 56.306 49.1285V47.0609C56.306 47.0491 56.3158 47.0396 56.3277 47.0396H61.8218C62.4666 47.0396 62.9911 46.5277 62.9911 45.8983V40.5361C62.9911 40.5245 63.0009 40.5149 63.0128 40.5149H65.1313C65.1433 40.5149 65.1531 40.5244 65.1531 40.5361V45.8983C65.1531 46.5277 65.6777 47.0396 66.3225 47.0396H71.8164C71.8283 47.0396 71.8382 47.0491 71.8382 47.0609V49.1285C71.8382 49.1403 71.8283 49.1498 71.8164 49.1498H66.3225C65.6776 49.1498 65.1531 49.6617 65.1531 50.2911V53.4884C65.1531 53.9307 65.5204 54.2893 65.9737 54.2893C66.427 54.2893 66.7943 53.9307 66.7943 53.4884V50.7515H71.8164C72.7334 50.7515 73.4793 50.0235 73.4793 49.1285V47.0609C73.4793 46.1659 72.7334 45.4378 71.8164 45.4378Z" fill="white"></path> </g> <defs> <filter id="filter0_d" x="0" y="0" width="128.144" height="128.144" filterUnits="userSpaceOnUse" color-interpolation-filters="sRGB"> <feFlood flood-opacity="0" result="BackgroundImageFix"></feFlood> <feColorMatrix in="SourceAlpha" type="matrix" values="0 0 0 0 0 0 0 0 0 0 0 0 0 0 0 0 0 0 127 0"></feColorMatrix> <feOffset dy="4"></feOffset> <feGaussianBlur stdDeviation="7.5"></feGaussianBlur> <feColorMatrix type="matrix" values="0 0 0 0 0 0 0 0 0 0 0 0 0 0 0 0 0 0 0.25 0"></feColorMatrix> <feBlend mode="normal" in2="BackgroundImageFix" result="effect1_dropShadow"></feBlend> <feBlend mode="normal" in="SourceGraphic" in2="effect1_dropShadow" result="shape"></feBlend> </filter> <linearGradient id="paint0_linear" x1="64.0719" y1="11" x2="64.0719" y2="109.144" gradientUnits="userSpaceOnUse"> <stop stop-color="#4D5060"></stop> <stop offset="1" stop-color="#0F101A"></stop> </linearGradient> <clipPath id="clip0"> <rect width="56.0182" height="54.6737" fill="white" transform="translate(36.0628 29.374)"></rect> </clipPath> </defs> </svg> 