<?xml version="1.0" encoding="UTF-8"?> <svg xmlns="http://www.w3.org/2000/svg" width="129" height="129" viewBox="0 0 129 129" fill="none"> <g filter="url(#filter0_d)"> <circle cx="64.0719" cy="60.0719" r="49.0719" fill="url(#paint0_linear)"></circle> </g> <path d="M40.4489 76.903C39.9754 76.903 39.5884 76.5569 39.5884 76.1287C39.5884 75.7006 39.9668 75.3545 40.4394 75.3545H40.4489C40.9215 75.3545 41.3051 75.7006 41.3051 76.1287C41.3051 76.5569 40.9215 76.903 40.4489 76.903Z" fill="white"></path> <path d="M89.2301 68.7462C88.9338 68.7462 88.6461 68.6076 88.4886 68.3598C88.2514 67.989 88.3918 67.5159 88.8002 67.3022C89.5931 66.888 90.0845 66.1169 90.0845 65.2892C90.0845 64.0086 88.9321 62.9665 87.5159 62.9665C87.0425 62.9665 86.6597 62.6204 86.6597 62.1922C86.6597 61.7641 87.0425 61.418 87.5159 61.418C89.8765 61.418 91.7969 63.1546 91.7969 65.2892C91.7969 66.6666 90.9776 67.9518 89.6582 68.6417C89.5229 68.7129 89.3756 68.7462 89.2301 68.7462Z" fill="white"></path> <path d="M66.1118 79.9998C65.807 79.9998 65.5116 79.8527 65.3567 79.5925C65.1323 79.2163 65.289 78.7463 65.7051 78.5442L88.8225 67.289C89.2369 67.0862 89.7575 67.2271 89.9818 67.6042C90.2062 67.9804 90.0495 68.4504 89.6334 68.6525L66.516 79.9077C66.3875 79.9704 66.2488 79.9998 66.1118 79.9998Z" fill="white"></path> <path d="M66.1118 79.9999C66.0733 79.9999 66.0348 79.9976 65.9954 79.993L47.1599 77.6702C46.6907 77.6122 46.3627 77.222 46.4269 76.7984C46.4903 76.3742 46.9184 76.0823 47.391 76.1357L66.2266 78.4584C66.6958 78.5165 67.0237 78.9067 66.9595 79.3302C66.9013 79.7189 66.5331 79.9999 66.1118 79.9999Z" fill="white"></path> <path d="M47.2754 78.4499H44.7128C44.2393 78.4499 43.8566 78.1038 43.8566 77.6757C43.8566 77.2475 44.2393 76.9014 44.7128 76.9014H46.4192V59.0954H44.7128C44.2393 59.0954 43.8566 58.7493 43.8566 58.3211C43.8566 57.893 44.2393 57.5469 44.7128 57.5469H47.2754C47.7489 57.5469 48.1316 57.893 48.1316 58.3211V77.6757C48.1316 78.1038 47.7489 78.4499 47.2754 78.4499Z" fill="white"></path> <path d="M70.3911 65.2892C69.975 65.2892 69.6103 65.0151 69.5461 64.6311C69.475 64.2083 69.7961 63.8135 70.2635 63.7492L86.8028 61.4722C87.2685 61.4063 87.7069 61.6982 87.778 62.121C87.849 62.5437 87.528 62.9386 87.0605 63.0028L70.5204 65.2799C70.4776 65.2861 70.4339 65.2892 70.3911 65.2892Z" fill="white"></path> <path d="M66.9671 68.3864C66.4937 68.3864 66.1109 68.0403 66.1109 67.6122C66.1109 67.184 66.4937 66.8379 66.9671 66.8379C68.3833 66.8379 69.5357 65.7958 69.5357 64.5152C69.5357 63.3809 68.6419 62.4185 67.4098 62.2265C66.944 62.1537 66.6315 61.7535 66.712 61.3323C66.7925 60.9111 67.236 60.6308 67.7009 60.7013C69.7566 61.0203 71.2481 62.6253 71.2481 64.5152C71.2481 66.6498 69.3277 68.3864 66.9671 68.3864Z" fill="white"></path> <path d="M67.5561 62.2377C67.5022 62.2377 67.4465 62.2331 67.3917 62.223L53.9597 59.8546C53.4956 59.7733 53.1925 59.3661 53.2833 58.9464C53.3723 58.5268 53.8244 58.2512 54.2876 58.3348L67.7197 60.7032C68.1837 60.7845 68.4868 61.1917 68.3961 61.6114C68.3164 61.9815 67.9577 62.2377 67.5561 62.2377Z" fill="white"></path> <path d="M54.1241 59.8698H47.2754C46.8019 59.8698 46.4192 59.5237 46.4192 59.0955C46.4192 58.6674 46.8019 58.3213 47.2754 58.3213H54.1241C54.5976 58.3213 54.9803 58.6674 54.9803 59.0955C54.9803 59.5237 54.5976 59.8698 54.1241 59.8698Z" fill="white"></path> <path d="M66.6076 68.3686C66.5862 68.3686 66.5631 68.3678 66.5408 68.3662L55.7707 67.6098C55.2989 67.5765 54.9461 67.2049 54.983 66.7783C55.0198 66.3509 55.4299 66.0319 55.9025 66.066L66.6727 66.8224C67.1444 66.8557 67.4972 67.2273 67.4604 67.6539C67.4253 68.0596 67.0511 68.3686 66.6076 68.3686Z" fill="white"></path> <path d="M86.9294 63.0108C86.5193 63.0108 86.1562 62.7429 86.086 62.3643C86.0081 61.9423 86.3223 61.5428 86.789 61.4731C87.0279 61.4368 87.2719 61.4189 87.5159 61.4189C87.9894 61.4189 88.3721 61.765 88.3721 62.1932C88.3721 62.6213 87.9894 62.9674 87.5159 62.9674C87.3643 62.9674 87.2154 62.979 87.0715 63.0007C87.0244 63.0077 86.9765 63.0108 86.9294 63.0108Z" fill="white"></path> <path d="M66.9671 68.3865C66.813 68.3865 66.6615 68.3788 66.5125 68.3633C66.0424 68.3153 65.7051 67.9312 65.7582 67.5077C65.8113 67.0827 66.2291 66.7707 66.7043 66.8256C66.7916 66.8341 66.8781 66.8388 66.9671 66.8388C67.4406 66.8388 67.8233 67.1849 67.8233 67.613C67.8233 68.0412 67.4406 68.3865 66.9671 68.3865Z" fill="white"></path> <path d="M44.7067 80.0001H37.8562C37.3827 80.0001 37 79.654 37 79.2259C37 78.7977 37.3827 78.4516 37.8562 78.4516H43.8505V57.547H37.8562C37.3827 57.547 37 57.2009 37 56.7728C37 56.3446 37.3827 55.9985 37.8562 55.9985H44.7067C45.1801 55.9985 45.5629 56.3446 45.5629 56.7728V79.2259C45.5629 79.654 45.1801 80.0001 44.7067 80.0001Z" fill="white"></path> <path d="M63.5404 50.5849C62.1243 50.5849 60.9718 49.5428 60.9718 48.2622C60.9718 46.9816 62.1243 45.9395 63.5404 45.9395C64.0139 45.9395 64.3966 46.2855 64.3966 46.7137C64.3966 47.1419 64.0139 47.4879 63.5404 47.4879C63.0678 47.4879 62.6842 47.8348 62.6842 48.2622C62.6842 48.6896 63.0678 49.0364 63.5404 49.0364C64.0139 49.0364 64.3966 49.3825 64.3966 49.8107C64.3966 50.2388 64.0139 50.5849 63.5404 50.5849Z" fill="white"></path> <path d="M72.0991 50.5849C71.6256 50.5849 71.2429 50.2388 71.2429 49.8107C71.2429 49.3825 71.6256 49.0364 72.0991 49.0364C72.5717 49.0364 72.9553 48.6896 72.9553 48.2622C72.9553 47.8348 72.5717 47.4879 72.0991 47.4879C71.6256 47.4879 71.2429 47.1419 71.2429 46.7137C71.2429 46.2855 71.6256 45.9395 72.0991 45.9395C73.5153 45.9395 74.6677 46.9816 74.6677 48.2622C74.6677 49.5428 73.5153 50.5849 72.0991 50.5849Z" fill="white"></path> <path d="M72.099 47.4879H63.5404C63.067 47.4879 62.6842 47.1419 62.6842 46.7137C62.6842 46.2855 63.067 45.9395 63.5404 45.9395H72.099C72.5725 45.9395 72.9552 46.2855 72.9552 46.7137C72.9552 47.1419 72.5725 47.4879 72.099 47.4879Z" fill="white"></path> <path d="M72.099 50.5851H63.5404C63.067 50.5851 62.6842 50.239 62.6842 49.8109C62.6842 49.3827 63.067 49.0366 63.5404 49.0366H72.099C72.5725 49.0366 72.9552 49.3827 72.9552 49.8109C72.9552 50.239 72.5725 50.5851 72.099 50.5851Z" fill="white"></path> <path d="M73.8115 64.8197C73.338 64.8197 72.9553 64.4736 72.9553 64.0455V48.2625C72.9553 47.8344 73.338 47.4883 73.8115 47.4883C74.285 47.4883 74.6677 47.8344 74.6677 48.2625V64.0455C74.6677 64.4729 74.285 64.8197 73.8115 64.8197Z" fill="white"></path> <path d="M61.828 61.228C61.3546 61.228 60.9718 60.8819 60.9718 60.4538V48.2625C60.9718 47.8344 61.3546 47.4883 61.828 47.4883C62.3015 47.4883 62.6842 47.8344 62.6842 48.2625V60.4538C62.6842 60.8819 62.3015 61.228 61.828 61.228Z" fill="white"></path> <path d="M67.8232 49.0367C67.3497 49.0367 66.967 48.6906 66.967 48.2625V40.5169C66.967 40.0888 67.3497 39.7427 67.8232 39.7427C68.2967 39.7427 68.6794 40.0888 68.6794 40.5169V48.2625C68.6794 48.6906 68.2967 49.0367 67.8232 49.0367Z" fill="white"></path> <path d="M67.8232 45.1652C64.99 45.1652 62.686 43.0818 62.686 40.5198C62.686 38.4657 64.5645 32 67.8232 32C71.0819 32 72.9604 38.4657 72.9604 40.5198C72.9604 43.081 70.6564 45.1652 67.8232 45.1652ZM67.8232 33.5485C66.3523 33.5485 64.3984 38.3318 64.3984 40.5198C64.3984 42.2278 65.9344 43.6168 67.8232 43.6168C69.712 43.6168 71.248 42.2278 71.248 40.5198C71.248 38.3318 69.2942 33.5485 67.8232 33.5485Z" fill="white"></path> <defs> <filter id="filter0_d" x="0" y="0" width="128.144" height="128.144" filterUnits="userSpaceOnUse" color-interpolation-filters="sRGB"> <feFlood flood-opacity="0" result="BackgroundImageFix"></feFlood> <feColorMatrix in="SourceAlpha" type="matrix" values="0 0 0 0 0 0 0 0 0 0 0 0 0 0 0 0 0 0 127 0"></feColorMatrix> <feOffset dy="4"></feOffset> <feGaussianBlur stdDeviation="7.5"></feGaussianBlur> <feColorMatrix type="matrix" values="0 0 0 0 0 0 0 0 0 0 0 0 0 0 0 0 0 0 0.25 0"></feColorMatrix> <feBlend mode="normal" in2="BackgroundImageFix" result="effect1_dropShadow"></feBlend> <feBlend mode="normal" in="SourceGraphic" in2="effect1_dropShadow" result="shape"></feBlend> </filter> <linearGradient id="paint0_linear" x1="64.0719" y1="11" x2="64.0719" y2="109.144" gradientUnits="userSpaceOnUse"> <stop stop-color="#4D5060"></stop> <stop offset="1" stop-color="#0F101A"></stop> </linearGradient> </defs> </svg> 