<?xml version="1.0" encoding="UTF-8"?> <svg xmlns="http://www.w3.org/2000/svg" width="129" height="129" viewBox="0 0 129 129" fill="none"> <g filter="url(#filter0_d)"> <circle cx="64.0719" cy="60.0719" r="49.0719" fill="url(#paint0_linear)"></circle> </g> <path d="M83.4951 55.8781C83.0458 55.8781 82.6826 55.5081 82.6826 55.0503V53.7067C82.6826 53.2489 83.0458 52.8789 83.4951 52.8789C83.9445 52.8789 84.3076 53.2489 84.3076 53.7067V55.0503C84.3076 55.5072 83.9445 55.8781 83.4951 55.8781Z" fill="white"></path> <path d="M78.6152 55.8781C78.1659 55.8781 77.8027 55.5081 77.8027 55.0503V53.7067C77.8027 53.2489 78.1659 52.8789 78.6152 52.8789C79.0645 52.8789 79.4277 53.2489 79.4277 53.7067V55.0503C79.4277 55.5072 79.0645 55.8781 78.6152 55.8781Z" fill="white"></path> <path d="M78.6153 55.8798H68.8734C68.4241 55.8798 68.0609 55.5097 68.0609 55.0519C68.0609 54.5942 68.4241 54.2241 68.8734 54.2241H78.6153C79.0646 54.2241 79.4278 54.5942 79.4278 55.0519C79.4278 55.5097 79.0646 55.8798 78.6153 55.8798Z" fill="white"></path> <path d="M85.9359 55.8788H83.4951C83.0458 55.8788 82.6826 55.5088 82.6826 55.051C82.6826 54.5932 83.0458 54.2231 83.4951 54.2231H85.9359C86.3852 54.2231 86.7484 54.5932 86.7484 55.051C86.7484 55.5088 86.3852 55.8788 85.9359 55.8788Z" fill="white"></path> <path d="M76.1843 80.7035C75.735 80.7035 75.3718 80.3335 75.3718 79.8757V64.9782C75.3718 64.5204 75.735 64.1504 76.1843 64.1504C76.6336 64.1504 76.9968 64.5204 76.9968 64.9782V79.8757C76.9968 80.3335 76.6336 80.7035 76.1843 80.7035Z" fill="white"></path> <path d="M85.9342 80.7035C85.4849 80.7035 85.1217 80.3335 85.1217 79.8757V64.9782C85.1217 64.5204 85.4849 64.1504 85.9342 64.1504C86.3835 64.1504 86.7467 64.5204 86.7467 64.9782V79.8757C86.7467 80.3335 86.3835 80.7035 85.9342 80.7035Z" fill="white"></path> <path d="M76.1843 67.4628C75.735 67.4628 75.3718 67.0928 75.3718 66.635V58.3576C75.3718 57.8998 75.735 57.5298 76.1843 57.5298C76.6336 57.5298 76.9968 57.8998 76.9968 58.3576V66.635C76.9968 67.0928 76.6336 67.4628 76.1843 67.4628Z" fill="white"></path> <path d="M85.9343 67.4627C85.485 67.4627 85.1218 67.0927 85.1218 66.6349V60.8434C85.1218 60.3857 85.485 60.0156 85.9343 60.0156C86.3836 60.0156 86.7468 60.3857 86.7468 60.8434V66.6349C86.7468 67.0927 86.3836 67.4627 85.9343 67.4627Z" fill="white"></path> <path d="M81.0593 80.7044C80.61 80.7044 80.2468 80.3344 80.2468 79.8766V69.1174C80.2468 68.6596 80.61 68.2896 81.0593 68.2896C81.5086 68.2896 81.8718 68.6596 81.8718 69.1174V79.8766C81.8718 80.3344 81.5086 80.7044 81.0593 80.7044Z" fill="white"></path> <path d="M89.1875 59.1944C88.7382 59.1944 88.375 58.8243 88.375 58.3666C88.375 56.9957 87.2806 55.8798 85.9359 55.8798C85.4866 55.8798 85.1234 55.5097 85.1234 55.0519C85.1234 54.5942 85.4866 54.2241 85.9359 54.2241C88.1768 54.2241 90 56.0826 90 58.3666C90 58.8235 89.6368 59.1944 89.1875 59.1944Z" fill="white"></path> <path d="M89.1875 67.463C88.7382 67.463 88.375 67.093 88.375 66.6352V58.3669C88.375 57.9091 88.7382 57.5391 89.1875 57.5391C89.6368 57.5391 90 57.9091 90 58.3669V66.6352C90 67.093 89.6368 67.463 89.1875 67.463Z" fill="white"></path> <path d="M87.5625 69.1184C86.2186 69.1184 85.125 68.0042 85.125 66.635C85.125 66.1772 85.4882 65.8071 85.9375 65.8071C86.3868 65.8071 86.75 66.1772 86.75 66.635C86.75 67.0919 87.114 67.4628 87.5625 67.4628C88.011 67.4628 88.375 67.0919 88.375 66.635C88.375 66.1772 88.7382 65.8071 89.1875 65.8071C89.6368 65.8071 90 66.1772 90 66.635C90 68.0042 88.9064 69.1184 87.5625 69.1184Z" fill="white"></path> <path d="M66.4375 59.1833C65.0936 59.1833 64 58.069 64 56.6998C64 55.3306 65.0936 54.2163 66.4375 54.2163C66.8868 54.2163 67.25 54.5863 67.25 55.0441C67.25 55.5019 66.8868 55.872 66.4375 55.872C65.989 55.872 65.625 56.2428 65.625 56.6998C65.625 57.1567 65.989 57.5276 66.4375 57.5276C66.8868 57.5276 67.25 57.8976 67.25 58.3554C67.25 58.8132 66.8868 59.1833 66.4375 59.1833Z" fill="white"></path> <path d="M81.0593 80.7036C80.61 80.7036 80.2468 80.3335 80.2468 79.8757C80.2468 78.9627 79.518 78.2201 78.6218 78.2201C77.7256 78.2201 76.9968 78.9627 76.9968 79.8757C76.9968 80.3335 76.6336 80.7036 76.1843 80.7036C75.735 80.7036 75.3718 80.3335 75.3718 79.8757C75.3718 78.0496 76.8294 76.5645 78.6218 76.5645C80.4141 76.5645 81.8718 78.0496 81.8718 79.8757C81.8718 80.3335 81.5086 80.7036 81.0593 80.7036Z" fill="white"></path> <path d="M85.8977 80.7031C85.4484 80.7031 85.0852 80.333 85.0852 79.8753C85.0852 78.9729 84.3645 78.2387 83.4789 78.2387C82.5925 78.2387 81.871 78.9729 81.871 79.8753C81.871 80.333 81.5078 80.7031 81.0585 80.7031C80.6092 80.7031 80.246 80.333 80.246 79.8753C80.246 78.0607 81.6963 76.583 83.4789 76.583C85.2599 76.583 86.7102 78.0598 86.7102 79.8753C86.7102 80.333 86.347 80.7031 85.8977 80.7031Z" fill="white"></path> <path d="M81.0592 55.0509C77.4736 55.0509 74.5559 52.0782 74.5559 48.425C74.5559 47.9672 74.9191 47.5972 75.3684 47.5972C75.8177 47.5972 76.1809 47.9672 76.1809 48.425C76.1809 51.1659 78.369 53.3952 81.0592 53.3952C83.7493 53.3952 85.9374 51.1651 85.9374 48.425C85.9374 47.9672 86.3006 47.5972 86.7499 47.5972C87.1992 47.5972 87.5624 47.9672 87.5624 48.425C87.5624 52.0782 84.6447 55.0509 81.0592 55.0509Z" fill="white"></path> <path d="M75.3684 49.2547C74.9191 49.2547 74.5559 48.8846 74.5559 48.4269V44.2902C74.5559 43.8324 74.9191 43.4624 75.3684 43.4624C75.8177 43.4624 76.1809 43.8324 76.1809 44.2902V48.4269C76.1809 48.8846 75.8177 49.2547 75.3684 49.2547Z" fill="white"></path> <path d="M86.7484 49.2544C86.2991 49.2544 85.9359 48.8843 85.9359 48.4266V45.0954C85.9359 44.6376 86.2991 44.2676 86.7484 44.2676C87.1977 44.2676 87.5609 44.6376 87.5609 45.0954V48.4266C87.5609 48.8843 87.1977 49.2544 86.7484 49.2544Z" fill="white"></path> <path d="M85.9343 80.7035H76.1843C75.735 80.7035 75.3718 80.3335 75.3718 79.8757C75.3718 79.4179 75.735 79.0479 76.1843 79.0479H85.9343C86.3836 79.0479 86.7468 79.4179 86.7468 79.8757C86.7468 80.3335 86.3836 80.7035 85.9343 80.7035Z" fill="white"></path> <path d="M85.9375 66.6347H76.1875C75.7382 66.6347 75.375 66.2646 75.375 65.8068C75.375 65.349 75.7382 64.979 76.1875 64.979H85.9375C86.3868 64.979 86.75 65.349 86.75 65.8068C86.75 66.2646 86.3868 66.6347 85.9375 66.6347Z" fill="white"></path> <path d="M89.1875 66.6347H85.9375C85.4882 66.6347 85.125 66.2646 85.125 65.8068C85.125 65.349 85.4882 64.979 85.9375 64.979H89.1875C89.6368 64.979 90 65.349 90 65.8068C90 66.2646 89.6368 66.6347 89.1875 66.6347Z" fill="white"></path> <path d="M79.4366 57.5275C79.1401 57.5275 78.8541 57.3619 78.7111 57.0738L77.8905 55.4248C77.6873 55.0175 77.8474 54.5183 78.2471 54.3122C78.6453 54.1028 79.136 54.2675 79.3391 54.6756L80.1598 56.3247C80.3629 56.7319 80.2028 57.2311 79.8031 57.4372C79.6861 57.4993 79.5601 57.5275 79.4366 57.5275Z" fill="white"></path> <path d="M79.4367 57.5274C79.1385 57.5274 78.8517 57.3602 78.7087 57.0696C78.508 56.6615 78.6705 56.1631 79.0719 55.9587L80.6952 55.1308C81.0974 54.928 81.5841 55.0919 81.7856 55.5009C81.9863 55.909 81.8238 56.4073 81.4224 56.6118L79.7991 57.4396C79.6829 57.4992 79.5586 57.5274 79.4367 57.5274Z" fill="white"></path> <path d="M82.6802 57.5276C82.5567 57.5276 82.4308 57.4995 82.3138 57.4382C81.914 57.2321 81.754 56.7329 81.9571 56.3256L82.7777 54.6766C82.9792 54.2685 83.47 54.1038 83.8697 54.3132C84.2695 54.5193 84.4295 55.0185 84.2264 55.4258L83.4058 57.0748C83.2628 57.3621 82.9768 57.5276 82.6802 57.5276Z" fill="white"></path> <path d="M82.6802 57.5275C82.5583 57.5275 82.434 57.4994 82.3178 57.4406L80.6945 56.6128C80.2931 56.4083 80.1306 55.91 80.3313 55.5019C80.5328 55.0929 81.0211 54.929 81.4216 55.1318L83.045 55.9596C83.4464 56.1641 83.6089 56.6625 83.4082 57.0706C83.2652 57.3603 82.9784 57.5275 82.6802 57.5275Z" fill="white"></path> <path d="M75.3563 47.5942C75.1467 47.5942 74.937 47.5123 74.7786 47.3484C74.4625 47.023 74.4658 46.4998 74.7851 46.1778L76.4272 44.5222C76.7457 44.201 77.2608 44.2026 77.576 44.5288C77.8921 44.8541 77.8889 45.3773 77.5695 45.6993L75.9275 47.355C75.769 47.5139 75.5619 47.5942 75.3563 47.5942Z" fill="white"></path> <path d="M86.7312 47.5942C86.5216 47.5942 86.3119 47.5123 86.1535 47.3484L84.5456 45.6927C84.2295 45.3674 84.2328 44.8442 84.5521 44.5222C84.8706 44.201 85.3857 44.2026 85.7009 44.5288L87.3089 46.1844C87.6249 46.5098 87.6217 47.033 87.3024 47.355C87.1439 47.5139 86.9368 47.5942 86.7312 47.5942Z" fill="white"></path> <path d="M81.0454 46.7796C78.7729 46.7796 76.7619 45.9079 76.6774 45.8707C76.2655 45.6902 76.0762 45.2043 76.2533 44.7837C76.4304 44.364 76.9106 44.172 77.3201 44.3499C77.3372 44.3582 79.1182 45.124 81.0463 45.124C82.9914 45.124 84.7894 44.3566 84.8073 44.3483C85.2193 44.172 85.697 44.3657 85.8733 44.787C86.0488 45.2084 85.8554 45.6943 85.4427 45.8731C85.3549 45.9096 83.3164 46.7796 81.0454 46.7796Z" fill="white"></path> <path d="M75.3684 45.1173C74.9191 45.1173 74.5559 44.7473 74.5559 44.2895C74.5559 41.5461 76.7472 39.3135 79.4407 39.3135C79.89 39.3135 80.2532 39.6835 80.2532 40.1413C80.2532 40.5991 79.89 40.9691 79.4407 40.9691C77.6434 40.9691 76.1809 42.4584 76.1809 44.2895C76.1809 44.7465 75.8177 45.1173 75.3684 45.1173Z" fill="white"></path> <path d="M83.4967 40.9691H79.4407C78.9914 40.9691 78.6282 40.5991 78.6282 40.1413C78.6282 39.6835 78.9914 39.3135 79.4407 39.3135H83.4967C83.946 39.3135 84.3092 39.6835 84.3092 40.1413C84.3092 40.5991 83.946 40.9691 83.4967 40.9691Z" fill="white"></path> <path d="M83.4968 42.6273C83.0475 42.6273 82.6843 42.2572 82.6843 41.7994V40.1413C82.6843 39.6835 83.0475 39.3135 83.4968 39.3135C83.9461 39.3135 84.3093 39.6835 84.3093 40.1413V41.7994C84.3093 42.2572 83.9461 42.6273 83.4968 42.6273Z" fill="white"></path> <path d="M86.7313 45.9222C86.282 45.9222 85.9188 45.5522 85.9188 45.0944C85.9188 43.7343 84.8333 42.6283 83.4984 42.6283C83.0491 42.6283 82.6859 42.2583 82.6859 41.8005C82.6859 41.3427 83.0491 40.9727 83.4984 40.9727C85.7287 40.9727 87.5438 42.8212 87.5438 45.0944C87.5438 45.5522 87.1798 45.9222 86.7313 45.9222Z" fill="white"></path> <path d="M44.5049 55.8781C44.0555 55.8781 43.6924 55.5081 43.6924 55.0503V53.7067C43.6924 53.2489 44.0555 52.8789 44.5049 52.8789C44.9542 52.8789 45.3174 53.2489 45.3174 53.7067V55.0503C45.3174 55.5072 44.9542 55.8781 44.5049 55.8781Z" fill="white"></path> <path d="M49.3848 55.8781C48.9355 55.8781 48.5723 55.5081 48.5723 55.0503V53.7067C48.5723 53.2489 48.9355 52.8789 49.3848 52.8789C49.8341 52.8789 50.1973 53.2489 50.1973 53.7067V55.0503C50.1973 55.5072 49.8333 55.8781 49.3848 55.8781Z" fill="white"></path> <path d="M52.6202 55.8798H49.3848C48.9355 55.8798 48.5723 55.5097 48.5723 55.0519C48.5723 54.5942 48.9355 54.2241 49.3848 54.2241H52.6202C53.0695 54.2241 53.4327 54.5942 53.4327 55.0519C53.4327 55.5097 53.0695 55.8798 52.6202 55.8798Z" fill="white"></path> <path d="M44.5049 55.8788H42.0641C41.6148 55.8788 41.2516 55.5088 41.2516 55.051C41.2516 54.5932 41.6148 54.2231 42.0641 54.2231H44.5049C44.9542 54.2231 45.3174 54.5932 45.3174 55.051C45.3174 55.5088 44.9542 55.8788 44.5049 55.8788Z" fill="white"></path> <path d="M51.8158 80.7035C51.3665 80.7035 51.0033 80.3335 51.0033 79.8757V64.9782C51.0033 64.5204 51.3665 64.1504 51.8158 64.1504C52.2651 64.1504 52.6283 64.5204 52.6283 64.9782V79.8757C52.6283 80.3335 52.2651 80.7035 51.8158 80.7035Z" fill="white"></path> <path d="M42.0657 80.7035C41.6164 80.7035 41.2532 80.3335 41.2532 79.8757V64.9782C41.2532 64.5204 41.6164 64.1504 42.0657 64.1504C42.515 64.1504 42.8782 64.5204 42.8782 64.9782V79.8757C42.8782 80.3335 42.515 80.7035 42.0657 80.7035Z" fill="white"></path> <path d="M51.8157 67.4628C51.3664 67.4628 51.0032 67.0928 51.0032 66.635V58.3576C51.0032 57.8998 51.3664 57.5298 51.8157 57.5298C52.265 57.5298 52.6282 57.8998 52.6282 58.3576V66.635C52.6282 67.0928 52.265 67.4628 51.8157 67.4628Z" fill="white"></path> <path d="M42.0657 67.4627C41.6164 67.4627 41.2532 67.0927 41.2532 66.6349V60.8434C41.2532 60.3857 41.6164 60.0156 42.0657 60.0156C42.515 60.0156 42.8782 60.3857 42.8782 60.8434V66.6349C42.8782 67.0927 42.515 67.4627 42.0657 67.4627Z" fill="white"></path> <path d="M46.9407 80.7044C46.4914 80.7044 46.1282 80.3344 46.1282 79.8766V69.1174C46.1282 68.6596 46.4914 68.2896 46.9407 68.2896C47.39 68.2896 47.7532 68.6596 47.7532 69.1174V79.8766C47.7532 80.3344 47.39 80.7044 46.9407 80.7044Z" fill="white"></path> <path d="M38.8125 59.1944C38.3632 59.1944 38 58.8243 38 58.3666C38 56.0826 39.8232 54.2241 42.0641 54.2241C42.5134 54.2241 42.8766 54.5942 42.8766 55.0519C42.8766 55.5097 42.5134 55.8798 42.0641 55.8798C40.7194 55.8798 39.625 56.9948 39.625 58.3666C39.625 58.8235 39.2618 59.1944 38.8125 59.1944Z" fill="white"></path> <path d="M38.8125 67.463C38.3632 67.463 38 67.093 38 66.6352V58.3669C38 57.9091 38.3632 57.5391 38.8125 57.5391C39.2618 57.5391 39.625 57.9091 39.625 58.3669V66.6352C39.625 67.093 39.2618 67.463 38.8125 67.463Z" fill="white"></path> <path d="M40.4375 69.1184C39.0936 69.1184 38 68.0042 38 66.635C38 66.1772 38.3632 65.8071 38.8125 65.8071C39.2618 65.8071 39.625 66.1772 39.625 66.635C39.625 67.0919 39.989 67.4628 40.4375 67.4628C40.886 67.4628 41.25 67.0919 41.25 66.635C41.25 66.1772 41.6132 65.8071 42.0625 65.8071C42.5118 65.8071 42.875 66.1772 42.875 66.635C42.875 68.0042 41.7814 69.1184 40.4375 69.1184Z" fill="white"></path> <path d="M51.8157 80.7036C51.3664 80.7036 51.0032 80.3335 51.0032 79.8757C51.0032 78.9627 50.2744 78.2201 49.3782 78.2201C48.482 78.2201 47.7532 78.9627 47.7532 79.8757C47.7532 80.3335 47.39 80.7036 46.9407 80.7036C46.4914 80.7036 46.1282 80.3335 46.1282 79.8757C46.1282 78.0496 47.5859 76.5645 49.3782 76.5645C51.1706 76.5645 52.6282 78.0496 52.6282 79.8757C52.6282 80.3335 52.265 80.7036 51.8157 80.7036Z" fill="white"></path> <path d="M46.9408 80.7031C46.4914 80.7031 46.1283 80.333 46.1283 79.8753C46.1283 78.9729 45.4068 78.2387 44.5203 78.2387C43.6347 78.2387 42.914 78.9729 42.914 79.8753C42.914 80.333 42.5508 80.7031 42.1015 80.7031C41.6522 80.7031 41.289 80.333 41.289 79.8753C41.289 78.0607 42.7385 76.583 44.5203 76.583C46.3021 76.583 47.7533 78.0598 47.7533 79.8753C47.7533 80.333 47.3901 80.7031 46.9408 80.7031Z" fill="white"></path> <path d="M46.9407 55.0509C43.3552 55.0509 40.4375 52.0782 40.4375 48.425C40.4375 47.9672 40.8007 47.5972 41.25 47.5972C41.6993 47.5972 42.0625 47.9672 42.0625 48.425C42.0625 51.1659 44.2506 53.3952 46.9407 53.3952C49.6309 53.3952 51.819 51.1659 51.819 48.425C51.819 47.9672 52.1822 47.5972 52.6315 47.5972C53.0808 47.5972 53.444 47.9672 53.444 48.425C53.444 52.0782 50.5263 55.0509 46.9407 55.0509Z" fill="white"></path> <path d="M52.6315 46.7662C52.1822 46.7662 51.819 46.3962 51.819 45.9384C51.819 43.1975 49.6309 40.9681 46.9407 40.9681C44.2506 40.9681 42.0625 43.1975 42.0625 45.9384C42.0625 46.3962 41.6993 46.7662 41.25 46.7662C40.8007 46.7662 40.4375 46.3962 40.4375 45.9384C40.4375 42.2852 43.3552 39.3125 46.9407 39.3125C50.5263 39.3125 53.444 42.2852 53.444 45.9384C53.444 46.3962 53.0808 46.7662 52.6315 46.7662Z" fill="white"></path> <path d="M52.6316 49.2542C52.1823 49.2542 51.8191 48.8842 51.8191 48.4264V45.9396C51.8191 45.4819 52.1823 45.1118 52.6316 45.1118C53.0809 45.1118 53.4441 45.4819 53.4441 45.9396V48.4264C53.4441 48.8842 53.0809 49.2542 52.6316 49.2542Z" fill="white"></path> <path d="M41.2516 49.2544C40.8023 49.2544 40.4391 48.8843 40.4391 48.4265V45.924C40.4391 45.4662 40.8023 45.0962 41.2516 45.0962C41.7009 45.0962 42.0641 45.4662 42.0641 45.924V48.4265C42.0641 48.8843 41.7009 49.2544 41.2516 49.2544Z" fill="white"></path> <path d="M51.8157 80.7035H42.0657C41.6164 80.7035 41.2532 80.3335 41.2532 79.8757C41.2532 79.4179 41.6164 79.0479 42.0657 79.0479H51.8157C52.265 79.0479 52.6282 79.4179 52.6282 79.8757C52.6282 80.3335 52.265 80.7035 51.8157 80.7035Z" fill="white"></path> <path d="M51.8125 66.6347H42.0625C41.6132 66.6347 41.25 66.2646 41.25 65.8068C41.25 65.349 41.6132 64.979 42.0625 64.979H51.8125C52.2618 64.979 52.625 65.349 52.625 65.8068C52.625 66.2646 52.2618 66.6347 51.8125 66.6347Z" fill="white"></path> <path d="M42.0625 66.6347H38.8125C38.3632 66.6347 38 66.2646 38 65.8068C38 65.349 38.3632 64.979 38.8125 64.979H42.0625C42.5118 64.979 42.875 65.349 42.875 65.8068C42.875 66.2646 42.5118 66.6347 42.0625 66.6347Z" fill="white"></path> <path d="M48.5633 57.5276C48.4398 57.5276 48.3139 57.4995 48.1969 57.4382C47.7971 57.2321 47.6371 56.7329 47.8402 56.3256L48.6608 54.6766C48.8623 54.2685 49.3531 54.1038 49.7528 54.3132C50.1526 54.5193 50.3126 55.0185 50.1095 55.4258L49.2889 57.0748C49.1459 57.3621 48.8599 57.5276 48.5633 57.5276Z" fill="white"></path> <path d="M48.5634 57.5275C48.4415 57.5275 48.3172 57.4994 48.201 57.4406L46.5776 56.6128C46.1763 56.4083 46.0138 55.91 46.2144 55.5019C46.4159 55.0929 46.9034 54.929 47.3048 55.1318L48.9282 55.9596C49.3296 56.1641 49.4921 56.6625 49.2914 57.0706C49.1484 57.3603 48.8616 57.5275 48.5634 57.5275Z" fill="white"></path> <path d="M45.3199 57.5275C45.0233 57.5275 44.7373 57.3619 44.5943 57.0738L43.7737 55.4248C43.5705 55.0175 43.7306 54.5183 44.1304 54.3122C44.5285 54.1028 45.0192 54.2675 45.2224 54.6756L46.043 56.3247C46.2461 56.7319 46.086 57.2311 45.6863 57.4372C45.5685 57.4993 45.4434 57.5275 45.3199 57.5275Z" fill="white"></path> <path d="M45.3199 57.5274C45.0217 57.5274 44.7349 57.3602 44.5919 57.0696C44.3912 56.6615 44.5537 56.1631 44.9551 55.9587L46.5785 55.1308C46.9798 54.928 47.4681 55.0919 47.6688 55.5009C47.8695 55.909 47.707 56.4073 47.3056 56.6118L45.6823 57.4396C45.5661 57.4992 45.4418 57.5274 45.3199 57.5274Z" fill="white"></path> <path d="M52.6437 47.5942C52.4373 47.5942 52.2301 47.5139 52.0725 47.355L50.4305 45.6993C50.1111 45.3773 50.1087 44.8541 50.424 44.5288C50.7384 44.2026 51.2535 44.201 51.5728 44.5222L53.2149 46.1778C53.5342 46.4998 53.5367 47.023 53.2214 47.3484C53.063 47.5123 52.8533 47.5942 52.6437 47.5942Z" fill="white"></path> <path d="M41.2688 47.5942C41.0625 47.5942 40.8553 47.5139 40.6976 47.355C40.3783 47.033 40.3759 46.5098 40.6911 46.1844L42.2991 44.5288C42.6143 44.2026 43.1295 44.201 43.448 44.5222C43.7673 44.8442 43.7697 45.3674 43.4545 45.6927L41.8465 47.3484C41.6881 47.5123 41.4785 47.5942 41.2688 47.5942Z" fill="white"></path> <path d="M46.9546 46.7797C44.6828 46.7797 42.6443 45.9096 42.559 45.8732C42.1462 45.6944 41.9536 45.2093 42.1283 44.7888C42.303 44.3666 42.78 44.1704 43.1935 44.3484C43.2106 44.3558 45.0233 45.124 46.9554 45.124C48.8965 45.124 50.6628 44.3583 50.6807 44.3508C51.0894 44.1704 51.5712 44.3616 51.7475 44.783C51.9255 45.2027 51.7353 45.6903 51.3234 45.8699C51.2389 45.908 49.2271 46.7797 46.9546 46.7797Z" fill="white"></path> <path d="M75.3766 55.8726H52.6201C52.1708 55.8726 51.8076 55.5026 51.8076 55.0448V42.6291C51.8076 42.1713 52.1708 41.8013 52.6201 41.8013H75.3766C75.826 41.8013 76.1891 42.1713 76.1891 42.6291V55.0448C76.1891 55.5026 75.826 55.8726 75.3766 55.8726ZM53.4326 54.217H74.5641V43.4569H53.4326V54.217Z" fill="white"></path> <path d="M76.1843 59.1854H66.4375C65.9882 59.1854 65.625 58.8154 65.625 58.3576C65.625 57.8998 65.9882 57.5298 66.4375 57.5298H76.1843C76.6336 57.5298 76.9968 57.8998 76.9968 58.3576C76.9968 58.8154 76.6336 59.1854 76.1843 59.1854Z" fill="white"></path> <path d="M67.2484 59.1859C66.7991 59.1859 66.4359 58.8158 66.4359 58.3581V55.0451C66.4359 54.5873 66.7991 54.2173 67.2484 54.2173C67.6977 54.2173 68.0609 54.5873 68.0609 55.0451V58.3581C68.0609 58.8158 67.6977 59.1859 67.2484 59.1859Z" fill="white"></path> <path d="M68.0625 59.1835H67.25C66.8007 59.1835 66.4375 58.8134 66.4375 58.3557C66.4375 57.8979 66.8007 57.5278 67.25 57.5278H68.0625C68.5118 57.5278 68.875 57.8979 68.875 58.3557C68.875 58.8134 68.5118 59.1835 68.0625 59.1835Z" fill="white"></path> <path d="M61.5593 59.1833C61.11 59.1833 60.7468 58.8132 60.7468 58.3554C60.7468 57.8976 61.11 57.5276 61.5593 57.5276C62.0078 57.5276 62.3718 57.1567 62.3718 56.6998C62.3718 56.2428 62.0078 55.872 61.5593 55.872C61.11 55.872 60.7468 55.5019 60.7468 55.0441C60.7468 54.5863 61.11 54.2163 61.5593 54.2163C62.9031 54.2163 63.9968 55.3306 63.9968 56.6998C63.9968 58.069 62.9031 59.1833 61.5593 59.1833Z" fill="white"></path> <path d="M61.5593 59.1854H51.8109C51.3616 59.1854 50.9984 58.8154 50.9984 58.3576C50.9984 57.8998 51.3616 57.5298 51.8109 57.5298H61.5593C62.0086 57.5298 62.3718 57.8998 62.3718 58.3576C62.3718 58.8154 62.0086 59.1854 61.5593 59.1854Z" fill="white"></path> <path d="M60.7484 59.1859C60.2991 59.1859 59.9359 58.8158 59.9359 58.3581V55.0451C59.9359 54.5873 60.2991 54.2173 60.7484 54.2173C61.1977 54.2173 61.5609 54.5873 61.5609 55.0451V58.3581C61.5609 58.8158 61.1977 59.1859 60.7484 59.1859Z" fill="white"></path> <path d="M60.7451 59.1835H59.9326C59.4833 59.1835 59.1201 58.8134 59.1201 58.3557C59.1201 57.8979 59.4833 57.5278 59.9326 57.5278H60.7451C61.1945 57.5278 61.5576 57.8979 61.5576 58.3557C61.5576 58.8134 61.1945 59.1835 60.7451 59.1835Z" fill="white"></path> <path d="M52.6201 40.1424C52.1708 40.1424 51.8076 39.7724 51.8076 39.3146C51.8076 37.4868 53.2669 36 55.0609 36C55.5102 36 55.8734 36.37 55.8734 36.8278C55.8734 37.2856 55.5102 37.6556 55.0609 37.6556C54.1639 37.6556 53.4326 38.3999 53.4326 39.3146C53.4326 39.7724 53.0695 40.1424 52.6201 40.1424Z" fill="white"></path> <path d="M52.6201 43.4571C52.1708 43.4571 51.8076 43.087 51.8076 42.6292V39.3146C51.8076 38.8569 52.1708 38.4868 52.6201 38.4868C53.0695 38.4868 53.4326 38.8569 53.4326 39.3146V42.6292C53.4326 43.087 53.0695 43.4571 52.6201 43.4571Z" fill="white"></path> <path d="M75.3766 40.1424C74.9273 40.1424 74.5641 39.7724 74.5641 39.3146C74.5641 38.4007 73.8337 37.6556 72.9359 37.6556C72.4866 37.6556 72.1234 37.2856 72.1234 36.8278C72.1234 36.37 72.4866 36 72.9359 36C74.7299 36 76.1891 37.4868 76.1891 39.3146C76.1891 39.7724 75.8259 40.1424 75.3766 40.1424Z" fill="white"></path> <path d="M75.3766 43.4571C74.9273 43.4571 74.5641 43.087 74.5641 42.6292V39.3146C74.5641 38.8569 74.9273 38.4868 75.3766 38.4868C75.8259 38.4868 76.1891 38.8569 76.1891 39.3146V42.6292C76.1891 43.087 75.8259 43.4571 75.3766 43.4571Z" fill="white"></path> <path d="M72.9359 37.6556H55.0609C54.6116 37.6556 54.2484 37.2856 54.2484 36.8278C54.2484 36.37 54.6116 36 55.0609 36H72.9359C73.3852 36 73.7484 36.37 73.7484 36.8278C73.7484 37.2856 73.3852 37.6556 72.9359 37.6556Z" fill="white"></path> <path d="M71.3109 49.2518H56.6859C56.2366 49.2518 55.8734 48.8818 55.8734 48.424C55.8734 47.9662 56.2366 47.5962 56.6859 47.5962H71.3109C71.7602 47.5962 72.1234 47.9662 72.1234 48.424C72.1234 48.8818 71.7602 49.2518 71.3109 49.2518Z" fill="white"></path> <path d="M56.6859 49.2522C56.2366 49.2522 55.8734 48.8822 55.8734 48.4244V47.5949C55.8734 47.1371 56.2366 46.7671 56.6859 46.7671C57.1352 46.7671 57.4984 47.1371 57.4984 47.5949V48.4244C57.4984 48.8822 57.1352 49.2522 56.6859 49.2522Z" fill="white"></path> <path d="M71.3109 49.2522C70.8616 49.2522 70.4984 48.8822 70.4984 48.4244V47.5949C70.4984 47.1371 70.8616 46.7671 71.3109 46.7671C71.7602 46.7671 72.1234 47.1371 72.1234 47.5949V48.4244C72.1234 48.8822 71.7602 49.2522 71.3109 49.2522Z" fill="white"></path> <defs> <filter id="filter0_d" x="0" y="0" width="128.144" height="128.144" filterUnits="userSpaceOnUse" color-interpolation-filters="sRGB"> <feFlood flood-opacity="0" result="BackgroundImageFix"></feFlood> <feColorMatrix in="SourceAlpha" type="matrix" values="0 0 0 0 0 0 0 0 0 0 0 0 0 0 0 0 0 0 127 0"></feColorMatrix> <feOffset dy="4"></feOffset> <feGaussianBlur stdDeviation="7.5"></feGaussianBlur> <feColorMatrix type="matrix" values="0 0 0 0 0 0 0 0 0 0 0 0 0 0 0 0 0 0 0.25 0"></feColorMatrix> <feBlend mode="normal" in2="BackgroundImageFix" result="effect1_dropShadow"></feBlend> <feBlend mode="normal" in="SourceGraphic" in2="effect1_dropShadow" result="shape"></feBlend> </filter> <linearGradient id="paint0_linear" x1="64.0719" y1="11" x2="64.0719" y2="109.144" gradientUnits="userSpaceOnUse"> <stop stop-color="#4D5060"></stop> <stop offset="1" stop-color="#0F101A"></stop> </linearGradient> </defs> </svg> 