<?xml version="1.0" encoding="UTF-8"?> <svg xmlns="http://www.w3.org/2000/svg" width="129" height="129" viewBox="0 0 129 129" fill="none"> <g filter="url(#filter0_d)"> <circle cx="64.0719" cy="60.0719" r="49.0719" fill="url(#paint0_linear)"></circle> </g> <g clip-path="url(#clip0)"> <path d="M75.9409 46.8401C75.4557 45.5031 74.1573 44.6045 72.7109 44.6045C72.7109 44.6045 68.0713 44.6045 68.0673 44.6045C67.6435 44.6045 67.2909 44.9512 67.2909 45.3662V56.9376C67.2909 57.3585 67.6382 57.6993 68.0673 57.6993H78.7815C79.3092 57.6993 79.6901 57.1705 79.513 56.6821L75.9409 46.8401ZM68.8436 56.1759V46.1279H72.7109C73.5022 46.1279 74.2127 46.6195 74.478 47.3514L77.6809 56.1759H68.8436Z" fill="white"></path> <path d="M73.9337 60.0576H70.9887C69.713 60.0576 68.6754 61.0756 68.6754 62.3273V63.8722C68.6754 64.2927 69.0232 64.6339 69.4518 64.6339H75.4702C75.8993 64.6339 76.2466 64.2927 76.2466 63.8722V62.3273C76.2466 61.0756 75.209 60.0576 73.9337 60.0576ZM74.6939 63.1104H70.2281V62.3273C70.2281 61.9159 70.5694 61.5811 70.9887 61.5811H73.9333C74.3526 61.5811 74.6939 61.9159 74.6939 62.3273V63.1104Z" fill="white"></path> <path d="M75.1735 71.6226C73.0364 71.6226 71.2981 73.3285 71.2981 75.4252C71.2981 77.5219 73.0364 79.2278 75.1735 79.2278C77.3105 79.2278 79.0492 77.5219 79.0492 75.4252C79.0492 73.3285 77.3105 71.6226 75.1735 71.6226ZM75.1735 77.7044C73.8925 77.7044 72.8508 76.682 72.8508 75.4252C72.8508 74.1688 73.8925 73.1464 75.1735 73.1464C76.4545 73.1464 77.4965 74.1688 77.4965 75.4252C77.4965 76.682 76.4545 77.7044 75.1735 77.7044Z" fill="white"></path> <path d="M54.0049 71.6226C51.8679 71.6226 50.1292 73.3285 50.1292 75.4252C50.1292 77.5219 51.8679 79.2278 54.0049 79.2278C56.142 79.2278 57.8807 77.5219 57.8807 75.4252C57.8807 73.3285 56.142 71.6226 54.0049 71.6226ZM54.0049 77.7044C52.7239 77.7044 51.6819 76.682 51.6819 75.4252C51.6819 74.1688 52.7239 73.1464 54.0049 73.1464C55.2855 73.1464 56.328 74.1688 56.328 75.4252C56.328 76.682 55.2855 77.7044 54.0049 77.7044Z" fill="white"></path> <path d="M53.7615 45.9243H51.637C50.7369 45.9243 50.0046 46.6432 50.0046 47.5263V50.382H47.3476C46.4471 50.382 45.7148 51.1004 45.7148 51.9839V54.068C45.7148 54.9511 46.4471 55.67 47.3476 55.67H50.0042V63.9033C50.0042 64.7868 50.7369 65.5052 51.637 65.5052H53.7611C54.6616 65.5052 55.3939 64.7868 55.3939 63.9033V55.67H58.0509C58.9514 55.67 59.6837 54.9511 59.6837 54.068V51.9839C59.6837 51.1004 58.9514 50.382 58.0509 50.382H55.3939V47.5263C55.3939 46.6432 54.6616 45.9243 53.7615 45.9243ZM58.0509 51.9054C58.095 51.9054 58.131 51.9407 58.131 51.9839V54.068C58.131 54.1112 58.095 54.1465 58.0509 54.1465H54.6175C54.1889 54.1465 53.8412 54.4873 53.8412 54.9082V63.9033C53.8412 63.9465 53.8056 63.9818 53.7615 63.9818H51.637C51.5929 63.9818 51.5573 63.9465 51.5573 63.9033V54.9082C51.5573 54.4873 51.2096 54.1465 50.781 54.1465H47.3476C47.3031 54.1465 47.2675 54.1112 47.2675 54.068V51.9839C47.2675 51.9407 47.3031 51.9054 47.3476 51.9054H50.7806C51.2096 51.9054 51.5569 51.5642 51.5569 51.1437V47.5263C51.5569 47.4831 51.5929 47.4478 51.637 47.4478H53.7611C53.8052 47.4478 53.8412 47.4831 53.8412 47.5263V51.1437C53.8412 51.5642 54.1889 51.9054 54.6175 51.9054H58.0509Z" fill="white"></path> <path d="M89.1379 68.9379H89.1205V61.0934C89.1205 59.5592 87.8484 58.3111 86.2848 58.3111H83.2537L77.8721 43.4822H79.5603C80.5761 43.4822 81.4026 42.6713 81.4026 41.6747V41.2129C81.4026 39.2519 79.7762 37.6562 77.7775 37.6562H73.0522C72.6236 37.6562 72.2758 37.9974 72.2758 38.418C72.2758 38.8385 72.6236 39.1797 73.0522 39.1797H77.7775C78.9202 39.1797 79.8498 40.0918 79.8498 41.2129V41.6747C79.8498 41.8314 79.72 41.9588 79.5603 41.9588H48.519C48.0903 41.9588 47.7426 42.2996 47.7426 42.7205C47.7426 43.141 48.0903 43.4822 48.519 43.4822H64.3233V74.6635H61.2025C61.0148 72.9468 60.1661 71.327 58.8653 70.1666C57.5463 68.9899 55.7873 68.3218 54.0041 68.323C52.4509 68.3238 50.9091 68.8268 49.6673 69.7433C48.0774 70.9148 47.0192 72.7215 46.8077 74.6635H44.828V70.7644C44.828 69.7571 43.993 68.9375 42.9659 68.9375H41.4443V67.3875H44.052C44.4806 67.3875 44.8284 67.0467 44.8284 66.6258V63.7923C44.8284 62.2669 43.5632 61.0263 42.0084 61.0263H41.4443V43.4822H45.4135C45.8421 43.4822 46.1899 43.141 46.1899 42.7205C46.1899 42.2996 45.8421 41.9588 45.4135 41.9588H41.4443V39.1797H69.9467C70.3753 39.1797 70.7231 38.8385 70.7231 38.418C70.7231 37.9974 70.3753 37.6562 69.9467 37.6562H40.668C40.2393 37.6562 39.8916 37.9974 39.8916 38.418V68.9379H39.8621C38.8354 68.9379 38 69.7571 38 70.7648V74.36C38 75.3673 38.8354 76.1869 39.8621 76.1869H46.8085C47.1971 79.746 50.2759 82.5274 54.0049 82.5274C57.7339 82.5274 60.8127 79.7464 61.2012 76.1869H67.9771C68.3657 79.746 71.4444 82.5274 75.1734 82.5274C78.9028 82.5274 81.9816 79.7464 82.3702 76.1869H89.1379C90.1646 76.1869 91 75.3673 91 74.36V70.7648C91 69.7571 90.1646 68.9379 89.1379 68.9379ZM42.0084 62.5498C42.7071 62.5498 43.2757 63.1072 43.2757 63.7923V65.864H41.4443V62.5498H42.0084ZM87.5678 65.864H85.7247V63.7923C85.7247 63.1072 86.2929 62.5498 86.9912 62.5498H87.5678V65.864ZM39.5527 74.36V70.7648C39.5527 70.5974 39.6914 70.4613 39.8621 70.4613H42.9659C43.1366 70.4613 43.2753 70.5974 43.2753 70.7648V74.6635H39.8621C39.6914 74.6635 39.5527 74.5274 39.5527 74.36ZM54.0049 81.004C50.8699 81.004 48.3192 78.5018 48.3188 75.426C48.3188 75.4256 48.3188 75.4256 48.3188 75.4252C48.3188 72.3494 50.8695 69.8464 54.0049 69.8464C57.1399 69.8464 59.6906 72.3494 59.6906 75.4252C59.6906 78.5014 57.1399 81.004 54.0049 81.004ZM75.1734 81.004C72.038 81.004 69.4874 78.5014 69.4874 75.4252C69.4874 72.349 72.038 69.8464 75.1734 69.8464C78.3088 69.8464 80.8595 72.349 80.8595 75.4252C80.8595 78.5014 78.3088 81.004 75.1734 81.004ZM84.172 70.7648V74.6635H82.371C82.3625 74.5845 82.3508 74.5068 82.3395 74.4286C81.8441 70.9803 78.7229 68.323 75.1734 68.323C72.8941 68.323 70.6636 69.4465 69.322 71.2516C68.5816 72.2478 68.1101 73.4376 67.9763 74.6635H65.876V43.4822H76.224L81.9747 59.3283C82.0851 59.6318 82.3779 59.8346 82.7062 59.8346H86.2848C86.9694 59.8346 87.5286 60.3634 87.5646 61.0263H86.9912C85.4368 61.0263 84.172 62.2673 84.172 63.7923V66.6258C84.172 67.0467 84.5198 67.3875 84.9484 67.3875H87.5678V68.9375H86.0341C85.007 68.9379 84.172 69.7571 84.172 70.7648ZM89.4473 74.36C89.4473 74.5274 89.3086 74.6635 89.1379 74.6635H85.7247V70.7644C85.7247 70.5974 85.8634 70.4613 86.0341 70.4613H89.1379C89.3086 70.4613 89.4473 70.5974 89.4473 70.7644V74.36Z" fill="white"></path> </g> <defs> <filter id="filter0_d" x="0" y="0" width="128.144" height="128.144" filterUnits="userSpaceOnUse" color-interpolation-filters="sRGB"> <feFlood flood-opacity="0" result="BackgroundImageFix"></feFlood> <feColorMatrix in="SourceAlpha" type="matrix" values="0 0 0 0 0 0 0 0 0 0 0 0 0 0 0 0 0 0 127 0"></feColorMatrix> <feOffset dy="4"></feOffset> <feGaussianBlur stdDeviation="7.5"></feGaussianBlur> <feColorMatrix type="matrix" values="0 0 0 0 0 0 0 0 0 0 0 0 0 0 0 0 0 0 0.25 0"></feColorMatrix> <feBlend mode="normal" in2="BackgroundImageFix" result="effect1_dropShadow"></feBlend> <feBlend mode="normal" in="SourceGraphic" in2="effect1_dropShadow" result="shape"></feBlend> </filter> <linearGradient id="paint0_linear" x1="64.0719" y1="11" x2="64.0719" y2="109.144" gradientUnits="userSpaceOnUse"> <stop stop-color="#4D5060"></stop> <stop offset="1" stop-color="#0F101A"></stop> </linearGradient> <clipPath id="clip0"> <rect width="53" height="52" fill="white" transform="translate(38 34)"></rect> </clipPath> </defs> </svg> 