<?xml version="1.0" encoding="UTF-8"?> <svg xmlns="http://www.w3.org/2000/svg" width="129" height="129" viewBox="0 0 129 129" fill="none"> <g filter="url(#filter0_d)"> <circle cx="64.0719" cy="60.0719" r="49.0719" fill="url(#paint0_linear)"></circle> </g> <path d="M81.3895 43.3234L72.6721 31.4713C72.455 31.1762 72.1087 31 71.746 31H56.8052C56.4423 31 56.0962 31.1762 55.8791 31.4712L47.1616 43.3234C47.0563 43.4666 46.9996 43.6406 47 43.8194L47.0378 61.0373C47.0379 61.1207 47.0506 61.2035 47.0752 61.283L54.9128 86.6142C55.0436 87.0367 55.4247 87.3207 55.861 87.3207H72.6903C73.1266 87.3207 73.5077 87.0368 73.6385 86.6142V86.614L81.4761 61.2831C81.5007 61.2036 81.5133 61.1208 81.5135 61.0374L81.5513 43.8195C81.5515 43.6406 81.4948 43.4666 81.3895 43.3234ZM57.0416 32.6518H71.5096L79.8219 43.9532L71.9423 77.2567H69.4552C69.0059 77.2567 68.6416 77.6265 68.6416 78.0826C68.6416 78.5388 69.0059 78.9086 69.4552 78.9086H71.7688L71.7584 85.6689H56.7811V78.9086H65.9881C66.4375 78.9086 66.8017 78.5388 66.8017 78.0826C66.8017 77.6265 66.4375 77.2567 65.9881 77.2567H56.6088L48.7293 43.9532L57.0416 32.6518ZM48.6646 60.9078L48.6422 50.6581L55.1538 78.1804V81.881L48.6646 60.9078ZM73.3915 81.8998L73.3971 78.1811L79.909 50.6581L79.8866 60.9078L73.3915 81.8998Z" fill="white"></path> <path d="M51.0927 47.0451L57.6502 74.6018C57.7907 75.1923 58.3067 75.6047 58.9051 75.6047H69.6461C70.2446 75.6047 70.7605 75.1923 70.901 74.6019L72.6421 67.2855C72.7475 66.8421 72.479 66.3958 72.0423 66.2888C71.6054 66.1815 71.1659 66.4542 71.0605 66.8976L69.3815 73.9529H59.1697L52.8215 47.2755C53.7804 46.7355 54.4061 45.6971 54.4061 44.5504C54.4061 43.8475 54.1756 43.1789 53.7583 42.6374L58.673 35.9554H69.878L74.7928 42.6374C74.3755 43.1789 74.145 43.8474 74.145 44.5504C74.145 45.6969 74.7706 46.7352 75.7296 47.2754L71.876 63.4696C71.7706 63.913 72.0391 64.3593 72.4758 64.4665C72.9132 64.5733 73.3522 64.301 73.4577 63.8576L77.4582 47.0461C77.5725 46.5682 77.2955 46.0909 76.8285 45.9597C76.2065 45.7845 75.7721 45.205 75.7721 44.5505C75.7721 44.1057 75.9699 43.6898 76.3145 43.4092C76.6919 43.1021 76.7612 42.5535 76.4724 42.1602L70.9378 34.6355C70.7842 34.4267 70.5425 34.3037 70.2858 34.3037H58.2652C58.0085 34.3037 57.7668 34.4267 57.6132 34.6355L52.0784 42.1605C51.7897 42.5535 51.8592 43.1019 52.2365 43.4091C52.5812 43.6897 52.7788 44.1057 52.7788 44.5504C52.7788 45.2048 52.3445 45.7844 51.7232 45.9594C51.2555 46.0908 50.9785 46.568 51.0927 47.0451Z" fill="white"></path> <path d="M71.9723 48.6762V45.5267C71.9723 44.9496 71.5097 44.4801 70.9413 44.4801H66.8036V40.5686C66.8036 39.9914 66.3411 39.522 65.7726 39.522H62.6701C62.1016 39.522 61.6391 39.9915 61.6391 40.5686V44.4801H57.5014C56.9329 44.4801 56.4705 44.9497 56.4705 45.5267V48.6762C56.4705 49.2534 56.933 49.7229 57.5014 49.7229H61.6391V51.3664C61.6391 51.8225 62.0034 52.1923 62.4527 52.1923C62.9021 52.1923 63.2663 51.8225 63.2663 51.3664V49.1177C63.2663 48.5406 62.8038 48.0711 62.2353 48.0711H58.0976V46.132H62.2353C62.8039 46.132 63.2663 45.6624 63.2663 45.0854V41.1738H65.1764V45.0854C65.1764 45.6625 65.639 46.132 66.2074 46.132H70.3451V48.0711H66.2074C65.6389 48.0711 65.1764 48.5407 65.1764 49.1177V61.8352H63.2663V54.8862C63.2663 54.43 62.9021 54.0602 62.4527 54.0602C62.0034 54.0602 61.6391 54.43 61.6391 54.8862V62.4403C61.6391 63.0175 62.1017 63.4869 62.6701 63.4869H65.7726C66.3412 63.4869 66.8036 63.0174 66.8036 62.4403V49.7229H70.9413C71.5099 49.7229 71.9723 49.2534 71.9723 48.6762Z" fill="white"></path> <path d="M60.4066 67.2275C59.9573 67.2275 59.593 67.5973 59.593 68.0535C59.593 68.5096 59.9573 68.8794 60.4066 68.8794H68.0648C68.5141 68.8794 68.8784 68.5096 68.8784 68.0535C68.8784 67.5973 68.5141 67.2275 68.0648 67.2275H60.4066Z" fill="white"></path> <defs> <filter id="filter0_d" x="0" y="0" width="128.144" height="128.144" filterUnits="userSpaceOnUse" color-interpolation-filters="sRGB"> <feFlood flood-opacity="0" result="BackgroundImageFix"></feFlood> <feColorMatrix in="SourceAlpha" type="matrix" values="0 0 0 0 0 0 0 0 0 0 0 0 0 0 0 0 0 0 127 0"></feColorMatrix> <feOffset dy="4"></feOffset> <feGaussianBlur stdDeviation="7.5"></feGaussianBlur> <feColorMatrix type="matrix" values="0 0 0 0 0 0 0 0 0 0 0 0 0 0 0 0 0 0 0.25 0"></feColorMatrix> <feBlend mode="normal" in2="BackgroundImageFix" result="effect1_dropShadow"></feBlend> <feBlend mode="normal" in="SourceGraphic" in2="effect1_dropShadow" result="shape"></feBlend> </filter> <linearGradient id="paint0_linear" x1="64.0719" y1="11" x2="64.0719" y2="109.144" gradientUnits="userSpaceOnUse"> <stop stop-color="#4D5060"></stop> <stop offset="1" stop-color="#0F101A"></stop> </linearGradient> </defs> </svg> 