<?xml version="1.0" encoding="UTF-8"?> <svg xmlns="http://www.w3.org/2000/svg" width="99" height="99" viewBox="0 0 99 99" fill="none"> <circle cx="49.0719" cy="49.0719" r="49.0719" fill="white"></circle> <g clip-path="url(#clip0)"> <path d="M49 32.5324L55.1744 27.3871H63.2581V19H43.129V27.3871H49V32.5324ZM44.8064 25.7097V20.6774H61.5806V25.7097H54.5675L50.6774 28.9515V25.7097H44.8064Z" fill="black"></path> <path d="M46.4839 22.3549H48.1613V24.0323H46.4839V22.3549Z" fill="black"></path> <path d="M49.8387 22.3549H56.5484V24.0323H49.8387V22.3549Z" fill="black"></path> <path d="M58.2258 22.3549H59.9032V24.0323H58.2258V22.3549Z" fill="black"></path> <path d="M65.6943 69.3226L65.0162 62.533C67.8165 62.0903 69.9677 59.6655 69.9677 56.7419V45.8387H66.6129V44.6797C66.6129 43.5396 65.9863 42.5158 64.9789 41.9908C65.9806 41.0706 66.6129 39.7548 66.6129 38.2903V36.6129C66.6129 33.8375 64.356 31.5806 61.5806 31.5806C58.8053 31.5806 56.5484 33.8375 56.5484 36.6129V38.2903C56.5484 40.4616 57.933 42.3102 59.8639 43.0146L55.3624 47.5161H50.659C50.5652 46.118 49.6049 44.8992 48.2444 44.5102L44.8065 43.529V42.0309C45.8331 41.1091 46.4839 39.7765 46.4839 38.2903V36.6129C46.4839 33.8375 44.227 31.5806 41.4516 31.5806C38.6763 31.5806 36.4194 33.8375 36.4194 36.6129V38.2903C36.4194 39.7757 37.0701 41.1083 38.0968 42.0309V43.5298L34.6588 44.511C33.2263 44.9193 32.2258 46.2462 32.2258 47.7368V50.871H28.871V55.9032H30.5484V69.3226H23V71H75V69.3226H65.6943ZM58.2258 55.9032V52.0569L64.1688 46.1139C64.5984 45.6843 64.854 45.1073 64.9113 44.5053C64.9187 44.5638 64.9355 44.6191 64.9355 44.6797V55.0645C64.9355 56.4516 63.8064 57.5806 62.4194 57.5806H55.7097V55.9032H58.2258ZM55.7097 62.6129H59.9831L60.6539 69.3226H55.7097V62.6129ZM61.6687 62.6129H63.3379L64.0087 69.3226H62.3395L61.6687 62.6129ZM66.6129 55.0645V47.5161H68.2903V56.7419C68.2903 59.0541 66.409 60.9355 64.0968 60.9355H55.7097V59.258H62.4194C64.7315 59.258 66.6129 57.3767 66.6129 55.0645ZM58.2258 38.2903V36.6129C58.2258 34.7626 59.7304 33.258 61.5806 33.258C63.4309 33.258 64.9355 34.7626 64.9355 36.6129V38.2903C64.9355 40.1405 63.4309 41.6451 61.5806 41.6451C59.7304 41.6451 58.2258 40.1405 58.2258 38.2903ZM56.057 49.1935L61.6527 43.5978C61.828 43.4225 62.0704 43.3226 62.3178 43.3226C62.8363 43.3226 63.2581 43.7444 63.2581 44.2628C63.2581 44.5102 63.1581 44.7526 62.9829 44.9279L57.0398 50.871H48.1613C47.6985 50.871 47.3226 50.495 47.3226 50.0322C47.3226 49.5695 47.6985 49.1935 48.1613 49.1935H56.057ZM38.0968 36.6129C38.0968 34.7626 39.6014 33.258 41.4516 33.258C43.3019 33.258 44.8065 34.7626 44.8065 36.6129V38.2903C44.8065 40.1405 43.3019 41.6451 41.4516 41.6451C39.6014 41.6451 38.0968 40.1405 38.0968 38.2903V36.6129ZM41.4516 43.3226C42.0405 43.3226 42.6032 43.2153 43.129 43.0289V43.9299C42.921 44.251 42.3432 45 41.4516 45C40.5601 45 39.9822 44.251 39.7742 43.9299V43.0289C40.3 43.2153 40.8627 43.3226 41.4516 43.3226ZM33.9032 47.7368C33.9032 46.9911 34.4041 46.3285 35.1195 46.1237L38.5747 45.1368C39.0612 45.7707 40.008 46.6774 41.4516 46.6774C42.8952 46.6774 43.842 45.7707 44.3285 45.1359L47.7837 46.1229C48.4263 46.3068 48.8743 46.8654 48.964 47.5153H48.1613C46.7742 47.5153 45.6452 48.6444 45.6452 50.0314C45.6452 50.3267 45.7054 50.6068 45.7996 50.8701H33.9032V47.7368ZM30.5484 52.5484H56.5484V54.2258H30.5484V52.5484ZM32.2258 59.258H34.7419V57.5806H32.2258V55.9032H54.0323V57.5806H36.4194V59.258H54.0323V69.3226H52.0346L50.3572 65.9677H35.9009L34.2235 69.3226H32.2258V59.258ZM50.159 69.3226H36.0991L36.9378 67.6451H49.3202L50.159 69.3226Z" fill="black"></path> </g> <defs> <clipPath id="clip0"> <rect width="52" height="52" fill="white" transform="translate(23 19)"></rect> </clipPath> </defs> </svg> 