<?xml version="1.0" encoding="UTF-8"?> <svg xmlns="http://www.w3.org/2000/svg" width="99" height="99" viewBox="0 0 99 99" fill="none"> <circle cx="49.0719" cy="49.0719" r="49.0719" fill="white"></circle> <path d="M73.9844 53.0624H73.4766V48.3651C73.4766 46.5619 72.1143 45.0812 70.4399 45.0645C70.4366 45.0643 70.4332 45.0643 70.4298 45.0643H60.8636L58.7984 38.5538C59.8322 38.0659 60.5496 37.0138 60.5496 35.7969C60.5496 34.1168 59.1828 32.75 57.5028 32.75H37.8914C37.3305 32.75 36.8758 33.2048 36.8758 33.7656C36.8758 34.3265 37.3305 34.7812 37.8914 34.7812H57.5028C58.0627 34.7812 58.5183 35.2369 58.5183 35.7969C58.5183 36.3569 58.0628 36.8125 57.5028 36.8125H57.5005C57.4986 36.8125 57.4967 36.8125 57.4949 36.8125H48.0351C47.4741 36.8125 47.0194 37.2673 47.0194 37.8281V46.08C47.0194 46.6408 47.4741 47.0956 48.0351 47.0956H60.1126C60.1151 47.0956 60.1175 47.0959 60.12 47.0959C60.1225 47.0959 60.1252 47.0956 60.1278 47.0956H70.4232C70.9871 47.1037 71.4452 47.6723 71.4452 48.3651V49.0634H70.7735C70.2125 49.0634 69.7579 49.5182 69.7579 50.079C69.7579 50.6398 70.2125 51.0946 70.7735 51.0946H71.4453V53.0624H68.7969C67.5141 51.8071 65.7605 51.0311 63.8281 51.0311C61.8958 51.0311 60.1421 51.8071 58.8594 53.0624H57.2553C56.6944 53.0624 56.2397 53.5172 56.2397 54.078C56.2397 54.6388 56.6944 55.0936 57.2553 55.0936H57.4061C57.1052 55.7253 56.8955 56.408 56.7925 57.1249H42.2231C42.1202 56.408 41.9103 55.7253 41.6095 55.0936H49.1303C49.6912 55.0936 50.1459 54.6388 50.1459 54.078C50.1459 53.5172 49.6912 53.0624 49.1303 53.0624H40.1562C38.8735 51.8071 37.1198 51.0311 35.1875 51.0311C33.2552 51.0311 31.5015 51.8071 30.2188 53.0624H26.6736L26.8923 51.0946H27.5945C28.1554 51.0946 28.6101 50.6398 28.6101 50.079C28.6101 49.5182 28.1554 49.0634 27.5945 49.0634H27.118L28.578 35.9232C28.6705 35.282 29.1905 34.7812 29.7664 34.7812C30.3273 34.7812 30.782 34.3265 30.782 33.7656C30.782 33.2048 30.3273 32.75 29.7664 32.75C28.1669 32.75 26.7901 34.0008 26.5639 35.6596C26.5628 35.668 26.5618 35.6763 26.5608 35.6846L24.9732 49.973C24.9731 49.9742 24.9729 49.9754 24.9727 49.9766L24.6299 53.0624H24.0156C23.4547 53.0624 23 53.5172 23 54.078V56.617C23 58.017 24.1389 59.1561 25.539 59.1561H28.1519C28.6464 62.5967 31.6123 65.2499 35.1875 65.2499C38.7627 65.2499 41.7287 62.5967 42.2231 59.1561H56.7924C57.2869 62.5967 60.2528 65.2499 63.828 65.2499C67.4032 65.2499 70.3693 62.5967 70.8637 59.1561H72.4609C73.861 59.1561 75 58.017 75 56.617V54.078C75 53.5172 74.5452 53.0624 73.9844 53.0624ZM49.0507 38.8437H56.7595L58.7326 45.0643H49.0507V38.8437ZM25.0312 56.617V55.0936H25.5384C25.539 55.0936 25.5396 55.0937 25.5401 55.0937C25.5408 55.0937 25.5415 55.0936 25.5422 55.0936H28.7654C28.4645 55.7253 28.2547 56.408 28.1518 57.1249H25.539C25.2637 57.1249 25.0312 56.8923 25.0312 56.617ZM35.1875 63.2186C32.3874 63.2186 30.1094 60.9406 30.1094 58.1405C30.1094 55.3404 32.3874 53.0624 35.1875 53.0624C37.9874 53.0624 40.2652 55.34 40.2656 58.1399C40.2656 58.1401 40.2656 58.1403 40.2656 58.1405C40.2656 58.1407 40.2656 58.1409 40.2656 58.1411C40.2652 60.941 37.9874 63.2186 35.1875 63.2186ZM63.8281 63.2186C61.028 63.2186 58.75 60.9406 58.75 58.1405C58.75 55.3404 61.028 53.0624 63.8281 53.0624C66.628 53.0624 68.9058 55.34 68.9062 58.1399C68.9062 58.1401 68.9062 58.1403 68.9062 58.1405C68.9062 58.1407 68.9062 58.1409 68.9062 58.1411C68.9058 60.941 66.628 63.2186 63.8281 63.2186ZM72.9688 56.617C72.9688 56.8923 72.7362 57.1249 72.4609 57.1249H70.8638C70.7608 56.408 70.551 55.7253 70.2501 55.0936H72.9688V56.617Z" fill="black"></path> <path d="M35.1875 55.0936C33.5075 55.0936 32.1406 56.4605 32.1406 58.1405C32.1406 59.8207 33.5075 61.1875 35.1875 61.1875C36.8675 61.1875 38.2344 59.8207 38.2344 58.1405C38.2344 56.4605 36.8675 55.0936 35.1875 55.0936ZM35.1875 59.1562C34.6275 59.1562 34.1719 58.7006 34.1719 58.1405C34.1719 57.5805 34.6275 57.1249 35.1875 57.1249C35.7475 57.1249 36.2031 57.5805 36.2031 58.1405C36.2031 58.7006 35.7475 59.1562 35.1875 59.1562Z" fill="black"></path> <path d="M63.8281 55.0936C62.1481 55.0936 60.7812 56.4605 60.7812 58.1405C60.7812 59.8207 62.1481 61.1875 63.8281 61.1875C65.5082 61.1875 66.875 59.8207 66.875 58.1405C66.875 56.4605 65.5082 55.0936 63.8281 55.0936ZM63.8281 59.1562C63.2681 59.1562 62.8125 58.7006 62.8125 58.1405C62.8125 57.5805 63.2681 57.1249 63.8281 57.1249C64.3881 57.1249 64.8438 57.5805 64.8438 58.1405C64.8438 58.7006 64.3881 59.1562 63.8281 59.1562Z" fill="black"></path> <path d="M34.3749 39.9069C33.8139 39.9069 33.3593 40.3617 33.3593 40.9225C33.3593 41.4834 33.8139 41.9382 34.3749 41.9382H36.4538V46.08C36.4538 46.6408 36.9085 47.0956 37.4694 47.0956C38.0303 47.0956 38.485 46.6408 38.485 46.08V41.9382H40.5639C41.1248 41.9382 41.5795 41.4834 41.5795 40.9225C41.5795 40.3617 41.1248 39.9069 40.5639 39.9069H38.485V37.8281C38.485 37.2673 38.0303 36.8125 37.4694 36.8125C36.9085 36.8125 36.4538 37.2673 36.4538 37.8281V39.9069H34.3749Z" fill="black"></path> <path d="M33.8292 34.7812C34.3902 34.7812 34.8448 34.3265 34.8448 33.7656C34.8448 33.2048 34.3902 32.75 33.8292 32.75H33.8285C33.2676 32.75 32.8133 33.2048 32.8133 33.7656C32.8133 34.3265 33.2684 34.7812 33.8292 34.7812Z" fill="black"></path> <path d="M54.2087 54.078C54.2087 53.5172 53.754 53.0624 53.1931 53.0624H53.1924C52.6315 53.0624 52.1772 53.5172 52.1772 54.078C52.1772 54.6388 52.6322 55.0936 53.1931 55.0936C53.754 55.0936 54.2087 54.6389 54.2087 54.078Z" fill="black"></path> </svg> 