<?xml version="1.0" encoding="UTF-8"?> <svg xmlns="http://www.w3.org/2000/svg" width="99" height="99" viewBox="0 0 99 99" fill="none"> <circle cx="49.0719" cy="49.0719" r="49.0719" fill="white"></circle> <g clip-path="url(#clip0)"> <path d="M65.0405 34.378L56.8698 23.4352C56.6664 23.1627 56.3418 23 56.0018 23H41.9982C41.6581 23 41.3337 23.1627 41.1302 23.4351L32.9595 34.378C32.8608 34.5103 32.8076 34.6709 32.808 34.8359L32.8434 50.733C32.8435 50.81 32.8554 50.8865 32.8785 50.9599L40.2245 74.3478C40.3471 74.7379 40.7043 75.0001 41.1132 75.0001H56.8869C57.2958 75.0001 57.653 74.738 57.7756 74.3478V74.3477L65.1216 50.96C65.1447 50.8866 65.1565 50.8101 65.1567 50.7331L65.1921 34.836C65.1923 34.6709 65.1391 34.5103 65.0405 34.378V34.378ZM42.2198 24.5251H55.7803L63.5712 34.9595L56.1859 65.7082H53.8548C53.4336 65.7082 53.0922 66.0496 53.0922 66.4707C53.0922 66.8919 53.4336 67.2333 53.8548 67.2333H56.0232L56.0135 73.475H41.9756V67.2333H50.6052C51.0263 67.2333 51.3677 66.8919 51.3677 66.4707C51.3677 66.0496 51.0263 65.7082 50.6052 65.7082H41.8142L34.4288 34.9595L42.2198 24.5251ZM34.3682 50.6135L34.3472 41.15L40.4504 66.561V69.9777L34.3682 50.6135ZM57.5441 69.9951L57.5494 66.5616L63.6528 41.15L63.6318 50.6135L57.5441 69.9951Z" fill="black"></path> <path d="M36.644 37.8143L42.7903 63.257C42.9219 63.8022 43.4056 64.183 43.9664 64.183H54.0337C54.5947 64.183 55.0782 63.8022 55.2099 63.2571L56.8418 56.502C56.9406 56.0926 56.689 55.6805 56.2796 55.5817C55.8701 55.4827 55.4582 55.7344 55.3594 56.1439L53.7857 62.6579H44.2144L38.2644 38.027C39.1632 37.5285 39.7497 36.5697 39.7497 35.511C39.7497 34.862 39.5336 34.2447 39.1425 33.7448L43.7489 27.5754H54.2511L58.8576 33.7448C58.4664 34.2447 58.2504 34.8619 58.2504 35.511C58.2504 36.5695 58.8367 37.5282 59.7356 38.0269L56.1238 52.9788C56.0249 53.3882 56.2766 53.8003 56.6859 53.8992C57.0959 53.9978 57.5073 53.7464 57.6063 53.337L61.3558 37.8152C61.4629 37.3739 61.2033 36.9333 60.7656 36.8122C60.1826 36.6504 59.7755 36.1153 59.7755 35.5111C59.7755 35.1004 59.9608 34.7164 60.2839 34.4573C60.6376 34.1737 60.7026 33.6673 60.4318 33.3041L55.2444 26.3567C55.1004 26.1639 54.8739 26.0504 54.6333 26.0504H43.3666C43.1261 26.0504 42.8996 26.1639 42.7556 26.3567L37.5679 33.3044C37.2974 33.6673 37.3625 34.1736 37.7161 34.4572C38.0392 34.7163 38.2245 35.1004 38.2245 35.511C38.2245 36.1152 37.8173 36.6503 37.2351 36.8119C36.7966 36.9332 36.5371 37.3738 36.644 37.8143V37.8143Z" fill="black"></path> <path d="M56.2139 39.3202V36.4123C56.2139 35.8795 55.7804 35.446 55.2476 35.446H51.3695V31.8345C51.3695 31.3017 50.9359 30.8682 50.4031 30.8682H47.4952C46.9624 30.8682 46.5289 31.3018 46.5289 31.8345V35.446H42.6508C42.1179 35.446 41.6844 35.8796 41.6844 36.4123V39.3202C41.6844 39.8531 42.118 40.2866 42.6508 40.2866H46.5289V41.804C46.5289 42.2252 46.8704 42.5666 47.2915 42.5666C47.7126 42.5666 48.0541 42.2252 48.0541 41.804V39.7278C48.0541 39.195 47.6205 38.7615 47.0877 38.7615H43.2096V36.9711H47.0877C47.6206 36.9711 48.0541 36.5376 48.0541 36.0048V32.3933H49.8443V36.0048C49.8443 36.5377 50.2779 36.9711 50.8106 36.9711H54.6888V38.7615H50.8106C50.2778 38.7615 49.8443 39.1951 49.8443 39.7278V51.4697H48.0541V45.0538C48.0541 44.6326 47.7126 44.2912 47.2915 44.2912C46.8704 44.2912 46.5289 44.6326 46.5289 45.0538V52.0284C46.5289 52.5613 46.9625 52.9947 47.4952 52.9947H50.4031C50.936 52.9947 51.3695 52.5612 51.3695 52.0284V40.2866H55.2476C55.7805 40.2866 56.2139 39.8531 56.2139 39.3202V39.3202Z" fill="black"></path> <path d="M45.3738 56.4485C44.9527 56.4485 44.6113 56.79 44.6113 57.2111C44.6113 57.6322 44.9527 57.9737 45.3738 57.9737H52.5516C52.9728 57.9737 53.3142 57.6322 53.3142 57.2111C53.3142 56.79 52.9728 56.4485 52.5516 56.4485H45.3738Z" fill="black"></path> </g> <defs> <clipPath id="clip0"> <rect width="52" height="52" fill="white" transform="translate(23 23)"></rect> </clipPath> </defs> </svg> 