<?xml version="1.0" encoding="UTF-8"?> <svg xmlns="http://www.w3.org/2000/svg" width="99" height="99" viewBox="0 0 99 99" fill="none"> <circle cx="49.0719" cy="49.0719" r="49.0719" fill="white"></circle> <g clip-path="url(#clip0)"> <path d="M74.572 29.563C74.5412 29.534 68.4331 23.7088 68.4331 23.7088C68.1996 23.4848 67.9581 23.2532 67.5071 23.2532H42.9168C42.1986 23.2532 41.6142 23.8375 41.6142 24.5558V28.5556L32.9474 30.0413C32.2527 30.1631 31.7855 30.828 31.9058 31.5219L32.3457 34.0866C29.5287 35.0346 26.6365 36.0118 23.8444 37.0148C23.1847 37.256 22.8384 37.9895 23.0739 38.6533L28.6278 54.0924C28.7395 54.4031 29.0323 54.5965 29.3446 54.5965C29.4301 54.5965 29.5173 54.582 29.6024 54.5513C29.9983 54.409 30.2037 53.9726 30.0614 53.5767L24.5896 38.3659C27.22 37.4241 29.9442 36.5024 32.6064 35.6063L35.2238 50.8655L38.2355 68.4391C38.3443 69.0594 38.8896 69.5008 39.505 69.5008C39.5747 69.5008 39.6454 69.4951 39.7163 69.4835L47.8734 68.0836L54.2475 66.991L44.6609 70.4367L37.1011 73.1549L31.2299 56.8247C31.0876 56.4288 30.6514 56.2234 30.2554 56.3657C29.8596 56.5079 29.6541 56.9443 29.7964 57.3401L35.7508 73.9023C35.9412 74.4232 36.4346 74.7469 36.9561 74.7469C37.1002 74.7469 37.2466 74.7222 37.3892 74.6701L45.1761 71.8704L62.8575 65.5152L66.2354 64.9362H73.6973C74.4155 64.9362 74.9999 64.3506 74.9999 63.6307V30.4213C75 29.9654 74.7526 29.7328 74.572 29.563V29.563ZM72.5539 29.7434H68.7423L68.6478 29.7438C68.4653 29.745 68.038 29.7482 67.9297 29.6405C67.9047 29.6156 67.8754 29.5325 67.8754 29.3783L67.8666 25.2736L72.5539 29.7434ZM73.4766 63.4126H43.1376V48.5675C43.1376 48.1468 42.7966 47.8058 42.3759 47.8058C41.9552 47.8058 41.6142 48.1468 41.6142 48.5675V63.6305C41.6142 64.3503 42.1986 64.936 42.9168 64.936H57.2181L47.6158 66.5819L39.6958 67.9411L36.7253 50.608L33.448 31.501L41.6141 30.1012V45.0331C41.6141 45.4538 41.9551 45.7948 42.3758 45.7948C42.7965 45.7948 43.1375 45.4538 43.1375 45.0331V24.7766H66.342L66.352 29.38C66.352 29.938 66.5217 30.3893 66.8563 30.7216C67.3705 31.2322 68.0974 31.2677 68.5487 31.2677C68.5875 31.2677 68.6242 31.2674 68.6587 31.2672L73.4766 31.2669V63.4126Z" fill="black"></path> <path d="M46.8093 35.0808C46.8093 35.5015 47.1504 35.8425 47.571 35.8425H69.3497C69.7704 35.8425 70.1114 35.5015 70.1114 35.0808C70.1114 34.6601 69.7704 34.3191 69.3497 34.3191H47.571C47.1504 34.3191 46.8093 34.6601 46.8093 35.0808V35.0808Z" fill="black"></path> <path d="M69.3497 39.7306H47.571C47.1504 39.7306 46.8093 40.0716 46.8093 40.4923C46.8093 40.913 47.1504 41.254 47.571 41.254H69.3497C69.7704 41.254 70.1114 40.913 70.1114 40.4923C70.1114 40.0716 69.7704 39.7306 69.3497 39.7306Z" fill="black"></path> <path d="M69.3497 45.142H47.571C47.1504 45.142 46.8093 45.483 46.8093 45.9037C46.8093 46.3244 47.1504 46.6654 47.571 46.6654H69.3497C69.7704 46.6654 70.1114 46.3244 70.1114 45.9037C70.1114 45.483 69.7704 45.142 69.3497 45.142Z" fill="black"></path> <path d="M69.3497 50.5535H47.571C47.1504 50.5535 46.8093 50.8945 46.8093 51.3152C46.8093 51.7359 47.1504 52.0769 47.571 52.0769H69.3497C69.7704 52.0769 70.1114 51.7359 70.1114 51.3152C70.1114 50.8945 69.7704 50.5535 69.3497 50.5535Z" fill="black"></path> <path d="M69.3497 55.965H47.571C47.1504 55.965 46.8093 56.306 46.8093 56.7267C46.8093 57.1474 47.1504 57.4884 47.571 57.4884H69.3497C69.7704 57.4884 70.1114 57.1474 70.1114 56.7267C70.1114 56.306 69.7704 55.965 69.3497 55.965Z" fill="black"></path> </g> <defs> <clipPath id="clip0"> <rect width="52" height="52" fill="white" transform="translate(23 23)"></rect> </clipPath> </defs> </svg> 