<?xml version="1.0" encoding="UTF-8"?> <svg xmlns="http://www.w3.org/2000/svg" width="99" height="99" viewBox="0 0 99 99" fill="none"> <circle cx="49.0719" cy="49.0719" r="49.0719" fill="white"></circle> <path d="M25.4375 69.375H72.5625C72.6912 69.3749 72.818 69.3442 72.9325 69.2856C73.047 69.2269 73.1459 69.1418 73.2211 69.0374C73.2963 68.933 73.3457 68.8122 73.3651 68.685C73.3845 68.5578 73.3734 68.4278 73.3327 68.3057L71.75 63.5567V47.4375C71.746 47.2783 71.6942 47.124 71.6013 46.9947L69.2052 43.375H70.9375C71.153 43.375 71.3596 43.2894 71.512 43.137C71.6644 42.9847 71.75 42.778 71.75 42.5625V24.6875C71.75 24.472 71.6644 24.2653 71.512 24.113C71.3596 23.9606 71.153 23.875 70.9375 23.875H66.875V21.4375C66.875 21.222 66.7894 21.0153 66.637 20.863C66.4846 20.7106 66.278 20.625 66.0625 20.625H62.8125C62.597 20.625 62.3903 20.7106 62.238 20.863C62.0856 21.0153 62 21.222 62 21.4375V23.875H57.9375C57.722 23.875 57.5153 23.9606 57.363 24.113C57.2106 24.2653 57.125 24.472 57.125 24.6875V41.75H55.3846C55.4578 41.4852 55.4966 41.2122 55.5 40.9375C55.523 40.3403 55.3842 39.7479 55.0981 39.2231C54.812 38.6984 54.3894 38.2607 53.875 37.9564V37.6875C53.875 36.8255 53.5326 35.9989 52.9231 35.3894C52.3136 34.7799 51.4869 34.4375 50.625 34.4375H50.3569C50.0523 33.9232 49.6144 33.5007 49.0896 33.2146C48.5647 32.9286 47.9723 32.7897 47.375 32.8125C46.7861 32.8334 46.2183 33.0367 45.75 33.3942C45.2817 33.0367 44.7139 32.8334 44.125 32.8125C43.5277 32.7897 42.9353 32.9286 42.4104 33.2146C41.8856 33.5007 41.4477 33.9232 41.1431 34.4375H40.875C40.013 34.4375 39.1864 34.7799 38.5769 35.3894C37.9674 35.9989 37.625 36.8255 37.625 37.6875V37.9564C37.1106 38.2607 36.6879 38.6984 36.4019 39.2231C36.1158 39.7479 35.977 40.3403 36 40.9375C36.0034 41.2122 36.0422 41.4852 36.1154 41.75H31.125C31.0058 41.7499 30.888 41.7761 30.78 41.8266C30.672 41.8772 30.5765 41.9509 30.5002 42.0425L26.4466 46.924C26.3224 47.0665 26.2527 47.2485 26.25 47.4375V63.5567L24.6672 68.3057C24.6266 68.4278 24.6155 68.5578 24.6349 68.685C24.6543 68.8122 24.7036 68.933 24.7789 69.0374C24.8541 69.1418 24.953 69.2269 25.0675 69.2856C25.182 69.3442 25.3088 69.3749 25.4375 69.375ZM63.625 22.25H65.25V23.875H63.625V22.25ZM58.75 25.5H70.125V38.5H68.5V36.0625C68.4997 35.3972 68.336 34.7422 68.0234 34.155C67.7107 33.5678 67.2586 33.0663 66.7068 32.6947C67.1694 32.2435 67.487 31.6646 67.619 31.0319C67.751 30.3993 67.6914 29.7417 67.4478 29.1432C67.2042 28.5446 66.7877 28.0322 66.2515 27.6715C65.7153 27.3108 65.0837 27.1182 64.4375 27.1182C63.7913 27.1182 63.1597 27.3108 62.6235 27.6715C62.0873 28.0322 61.6708 28.5446 61.4272 29.1432C61.1836 29.7417 61.124 30.3993 61.256 31.0319C61.388 31.6646 61.7056 32.2435 62.1682 32.6947C61.6164 33.0663 61.1643 33.5678 60.8516 34.155C60.539 34.7422 60.3753 35.3972 60.375 36.0625V38.5H58.75V25.5ZM64.4375 33.625C65.084 33.625 65.7039 33.8818 66.1611 34.3389C66.6182 34.796 66.875 35.416 66.875 36.0625V38.5H62V36.0625C62 35.416 62.2568 34.796 62.7139 34.3389C63.171 33.8818 63.791 33.625 64.4375 33.625ZM62.8125 30.375C62.8125 30.0536 62.9078 29.7394 63.0864 29.4722C63.2649 29.205 63.5187 28.9967 63.8156 28.8737C64.1126 28.7507 64.4393 28.7185 64.7545 28.7812C65.0697 28.8439 65.3593 28.9987 65.5865 29.226C65.8138 29.4532 65.9686 29.7428 66.0313 30.058C66.094 30.3732 66.0618 30.6999 65.9388 30.9969C65.8158 31.2938 65.6075 31.5476 65.3403 31.7261C65.0731 31.9047 64.7589 32 64.4375 32C64.0065 32 63.5932 31.8288 63.2884 31.524C62.9837 31.2193 62.8125 30.806 62.8125 30.375ZM58.75 40.125H70.125V41.75H58.75V40.125ZM38.6504 39.2841C38.8225 39.2373 38.9745 39.1352 39.0829 38.9935C39.1913 38.8518 39.25 38.6784 39.25 38.5V37.6875C39.25 37.2565 39.4212 36.8432 39.7259 36.5385C40.0307 36.2337 40.444 36.0625 40.875 36.0625H41.6875C41.8659 36.0625 42.0393 36.0038 42.181 35.8954C42.3227 35.787 42.4248 35.635 42.4716 35.4629C42.5996 35.1364 42.8299 34.8602 43.1279 34.6754C43.4259 34.4906 43.7757 34.4071 44.125 34.4375C44.5384 34.5237 44.9155 34.7343 45.2056 35.0412C45.3549 35.1759 45.5489 35.2505 45.75 35.2505C45.9511 35.2505 46.1451 35.1759 46.2944 35.0412C46.5845 34.7343 46.9616 34.5237 47.375 34.4375C47.7243 34.4071 48.0741 34.4906 48.3721 34.6754C48.6701 34.8602 48.9004 35.1364 49.0284 35.4629C49.0752 35.635 49.1773 35.787 49.319 35.8954C49.4607 36.0038 49.6341 36.0625 49.8125 36.0625H50.625C51.056 36.0625 51.4693 36.2337 51.774 36.5385C52.0788 36.8432 52.25 37.2565 52.25 37.6875V38.5C52.25 38.6784 52.3087 38.8518 52.4171 38.9935C52.5255 39.1352 52.6775 39.2373 52.8496 39.2841C53.2032 39.4386 53.4942 39.708 53.6754 40.0487C53.8566 40.3893 53.9175 40.7812 53.848 41.1607C53.7786 41.5403 53.583 41.8852 53.2929 42.1397C53.0029 42.3941 52.6354 42.5431 52.25 42.5625C51.8366 42.4763 51.4595 42.2657 51.1694 41.9588C51.0761 41.875 50.9648 41.8138 50.844 41.7802C50.7232 41.7465 50.5962 41.7413 50.4731 41.7649C50.3499 41.7885 50.2339 41.8403 50.1341 41.9163C50.0343 41.9922 49.9534 42.0902 49.8978 42.2026C49.8482 42.3285 49.7716 42.4421 49.6733 42.5352C49.575 42.6284 49.4575 42.6988 49.329 42.7416C49.2006 42.7843 49.0643 42.7984 48.9298 42.7828C48.7953 42.7671 48.6659 42.7222 48.5507 42.6511C48.3707 42.561 48.1636 42.541 47.9697 42.5949C47.7757 42.6488 47.6087 42.7727 47.5009 42.9428C47.3677 43.1532 46.8379 43.3782 45.75 43.3782C44.6621 43.3782 44.1323 43.1532 43.9991 42.9428C43.926 42.8265 43.8248 42.7307 43.7047 42.6642C43.5847 42.5977 43.4497 42.5627 43.3125 42.5625C43.1726 42.5625 43.0351 42.5989 42.9136 42.6681C42.6965 42.8063 42.4363 42.86 42.1823 42.8192C41.9194 42.692 41.7138 42.4708 41.6062 42.1993C41.5506 42.0869 41.4698 41.9889 41.37 41.913C41.2702 41.8371 41.1541 41.7853 41.031 41.7617C40.9078 41.7381 40.7809 41.7433 40.6601 41.7769C40.5393 41.8106 40.4279 41.8717 40.3347 41.9556C40.0439 42.2643 39.6652 42.4762 39.25 42.5625C38.8646 42.5431 38.4971 42.3941 38.207 42.1397C37.917 41.8852 37.7214 41.5403 37.652 41.1607C37.5825 40.7812 37.6434 40.3893 37.8246 40.0487C38.0058 39.708 38.2968 39.4386 38.6504 39.2841V39.2841ZM31.5061 43.375H37.1229C37.7094 43.8957 38.4657 44.1846 39.25 44.1875C39.7643 44.1742 40.2641 44.015 40.6914 43.7284C40.9656 44.0299 41.3154 44.2527 41.7046 44.3736C42.1692 44.507 42.6634 44.496 43.1216 44.3419C43.9055 44.8351 44.8262 45.0656 45.75 45C46.6896 45.07 47.6261 44.8287 48.415 44.3134C48.8286 44.425 49.264 44.4285 49.6794 44.3237C50.0948 44.2188 50.4763 44.0091 50.7875 43.7146C51.2194 44.0096 51.7272 44.1738 52.25 44.1875C53.0343 44.1846 53.7906 43.8957 54.3771 43.375H67.2528L69.4197 46.625H28.7947L31.5061 43.375ZM27.875 48.25H70.125V49.875H27.875V48.25ZM69.7017 53.6304C69.0822 53.2983 68.3903 53.1246 67.6875 53.1246C66.9847 53.1246 66.2927 53.2983 65.6733 53.6304C65.3032 53.8584 64.8713 53.9657 64.4375 53.9375C63.833 53.931 63.2353 53.8088 62.6768 53.5776C61.9446 53.2842 61.1638 53.1307 60.375 53.125C59.6689 53.0952 58.9692 53.2708 58.3608 53.6304C57.9801 53.8321 57.5558 53.9375 57.125 53.9375C56.6942 53.9375 56.2699 53.8321 55.8892 53.6304C55.5192 53.4103 55.1118 53.2602 54.6875 53.1876V51.5H70.125V53.8303C69.9783 53.7763 69.8366 53.7094 69.7017 53.6304V53.6304ZM70.125 55.4975V59.625H54.6875V54.8613C54.834 54.9142 54.9756 54.9797 55.1108 55.0571C55.7303 55.3889 56.4222 55.5625 57.125 55.5625C57.8278 55.5625 58.5197 55.3889 59.1392 55.0571C59.5094 54.8292 59.9412 54.7219 60.375 54.75C60.9795 54.7565 61.5771 54.8787 62.1357 55.1099C62.8679 55.4033 63.6487 55.5568 64.4375 55.5625C65.1438 55.5926 65.8435 55.4167 66.4517 55.0563C66.8325 54.8549 67.2567 54.7496 67.6875 54.7496C68.1183 54.7496 68.5425 54.8549 68.9233 55.0563C69.2939 55.2749 69.701 55.4244 70.125 55.4975V55.4975ZM49.8125 54.75V53.125H48.1875V54.75H46.5625V56.375H48.1875V59.625H44.9375V51.5H53.0625V59.625H49.8125V56.375H51.4375V54.75H49.8125ZM27.875 51.5H43.3125V53.8603C42.9898 53.7898 42.6729 53.6953 42.3643 53.5776C41.6321 53.2842 40.8513 53.1307 40.0625 53.125C39.3564 53.0952 38.6567 53.2708 38.0483 53.6304C37.6781 53.8583 37.2463 53.9656 36.8125 53.9375C36.3787 53.9656 35.9468 53.8583 35.5767 53.6304C34.968 53.2713 34.2686 53.0958 33.5625 53.125C32.8564 53.0958 32.157 53.2713 31.5483 53.6304C31.1781 53.8583 30.7463 53.9656 30.3125 53.9375C29.8787 53.9656 29.4468 53.8583 29.0767 53.6304C28.7067 53.4102 28.2994 53.2601 27.875 53.1876V51.5ZM27.875 54.8613C28.0215 54.9142 28.1631 54.9797 28.2983 55.0571C28.9069 55.4165 29.6064 55.592 30.3125 55.5625C31.0186 55.5917 31.718 55.4162 32.3267 55.0571C32.6968 54.8292 33.1287 54.7219 33.5625 54.75C33.9963 54.7219 34.4281 54.8292 34.7983 55.0571C35.407 55.4162 36.1064 55.5917 36.8125 55.5625C37.5186 55.5923 38.2182 55.4167 38.8267 55.0571C39.1968 54.8292 39.6287 54.7219 40.0625 54.75C40.667 54.7565 41.2646 54.8787 41.8232 55.1099C42.3045 55.2927 42.8037 55.4246 43.3125 55.5032V59.625H27.875V54.8613ZM27.875 61.25H70.125V62.875H27.875V61.25ZM27.6483 64.5H70.3517L71.4347 67.75H26.5652L27.6483 64.5Z" fill="#181818"></path> <path d="M46.5625 36.875H44.9375V38.5H46.5625V36.875Z" fill="#181818"></path> <path d="M44.9375 38.5H43.3125V40.125H44.9375V38.5Z" fill="#181818"></path> <path d="M48.1875 38.5H46.5625V40.125H48.1875V38.5Z" fill="#181818"></path> <path d="M46.5625 40.125H44.9375V41.75H46.5625V40.125Z" fill="#181818"></path> </svg> 