<?xml version="1.0" encoding="UTF-8"?> <svg xmlns="http://www.w3.org/2000/svg" width="99" height="99" viewBox="0 0 99 99" fill="none"> <circle cx="49.0719" cy="49.0719" r="49.0719" fill="white"></circle> <path d="M72.5625 53.0625H70.125V51.3595C71.5168 51.0507 72.5625 49.8101 72.5625 48.3273C72.5625 47.4969 72.2391 46.7153 71.6517 46.1278L69.3125 43.7886L66.9733 46.1278C66.3859 46.7153 66.0625 47.4961 66.0625 48.3273C66.0625 49.8101 67.1082 51.0507 68.5 51.3595V53.0625H64.4375V26.25C64.4375 24.9061 63.3439 23.8125 62 23.8125H36C34.6561 23.8125 33.5625 24.9061 33.5625 26.25V53.0625H29.5V51.3595C30.8918 51.0507 31.9375 49.8101 31.9375 48.3273C31.9375 47.4969 31.6141 46.7153 31.0267 46.1278L28.6875 43.7886L26.3483 46.1278C25.7609 46.7153 25.4375 47.4961 25.4375 48.3273C25.4375 49.8101 26.4832 51.0507 27.875 51.3595V53.0625H25.4375C24.5413 53.0625 23.8125 53.7913 23.8125 54.6875V70.9375C23.8125 71.8337 24.5413 72.5625 25.4375 72.5625H31.1388C31.1315 72.8306 31.125 73.0987 31.125 73.375V74.1875H39.25C40.1462 74.1875 40.875 73.4587 40.875 72.5625V69.3125H57.125V72.5625C57.125 73.4587 57.8538 74.1875 58.75 74.1875H66.875V73.375C66.875 73.0987 66.8685 72.8306 66.8612 72.5625H72.5625C73.4587 72.5625 74.1875 71.8337 74.1875 70.9375V54.6875C74.1875 53.7913 73.4587 53.0625 72.5625 53.0625ZM67.6875 48.3273C67.6875 47.9364 67.8459 47.5529 68.1222 47.2767L69.3125 46.0864L70.5028 47.2767C70.7791 47.5529 70.9375 47.9356 70.9375 48.3273C70.9375 49.1463 70.2713 49.8125 69.4523 49.8125H69.1727C68.3537 49.8125 67.6875 49.1463 67.6875 48.3273V48.3273ZM27.0625 48.3273C27.0625 47.9364 27.2209 47.5529 27.4972 47.2767L28.6875 46.0864L29.8778 47.2767C30.1541 47.5529 30.3125 47.9356 30.3125 48.3273C30.3125 49.1463 29.6462 49.8125 28.8272 49.8125H28.5478C27.7288 49.8125 27.0625 49.1463 27.0625 48.3273V48.3273ZM31.9375 62.8125V59.5625H66.0625L66.0641 62.8125H31.9375ZM35.1875 35.5239L45.2739 25.4375H48.6636L35.1875 38.9136V35.5239ZM38.4375 29.9761V28.6875H39.7261L38.4375 29.9761ZM38.4375 37.9614L43.3052 33.0937C43.2832 33.1205 43.2581 33.1433 43.2369 33.1701C42.2376 34.4181 41.6875 35.9862 41.6875 37.586C41.6875 38.9876 42.2554 40.3583 43.2459 41.3487L44.3168 42.4196C44.6223 43.4847 45.2812 44.3996 46.1587 45.0326L45.893 46.0969L44.4557 46.4561C43.4344 46.7104 42.5032 47.2385 41.7614 47.9811C40.6654 49.0772 40.0625 50.5332 40.0625 52.0818V54.6875H38.4375V37.9614ZM46.4106 47.6415L47.7244 48.5174L46.8591 49.3827L46.1847 47.6976L46.4106 47.6415ZM51.5894 47.6415L51.8145 47.6976L51.1401 49.3827L50.2748 48.5174L51.5894 47.6415ZM50.5104 46.4073L49 47.4148L47.4896 46.4081L47.6513 45.7606C48.0803 45.8841 48.532 45.9548 49 45.9548C49.468 45.9548 49.9197 45.8849 50.3487 45.7606L50.5104 46.4073ZM49 44.3289C47.2076 44.3289 45.75 42.8713 45.75 41.0789L45.7492 39.2273C46.946 38.8291 48.0607 38.1791 49 37.3349C49.9393 38.1791 51.054 38.8291 52.2508 39.2273H52.25V41.0789C52.25 42.8713 50.7924 44.3289 49 44.3289ZM52.7635 37.6843C51.6528 37.3146 50.6266 36.6809 49.7971 35.8513L49 35.0551L48.2038 35.8513C47.3742 36.6809 46.348 37.3146 45.2357 37.6851C44.5711 37.9077 44.125 38.5269 44.125 39.2273V39.8699C43.6131 39.2208 43.3125 38.4164 43.3125 37.586C43.3125 36.3534 43.7358 35.1461 44.5061 34.1849C45.5444 32.8857 47.0947 32.1406 48.7571 32.1406H49.2429C50.9061 32.1406 52.4556 32.8857 53.4948 34.1849C54.2642 35.1461 54.6875 36.3542 54.6875 37.586C54.6875 38.4156 54.3869 39.2208 53.875 39.8699V39.2273C53.875 38.5269 53.4289 37.9077 52.7635 37.6843V37.6843ZM41.6875 52.0818C41.6875 50.9671 42.1214 49.9189 42.9111 49.13C43.3824 48.6571 43.9649 48.3142 44.6011 48.1119L46.2659 52.2744L48.1875 50.3528V53.0625H49.8125V50.3528L51.7341 52.2744L53.3989 48.1119C54.0351 48.3142 54.6168 48.6563 55.0897 49.13C55.8786 49.9189 56.3125 50.9671 56.3125 52.0818V54.6875H41.6875V52.0818ZM56.2394 47.9811C55.4967 47.2385 54.5648 46.7112 53.5443 46.4561L52.107 46.0969L51.8413 45.0326C52.7188 44.3996 53.3777 43.4856 53.6832 42.4196L54.7541 41.3487C55.7446 40.3583 56.3125 38.9876 56.3125 37.586C56.3125 35.9862 55.7624 34.4181 54.7639 33.1692C53.4143 31.4833 51.4017 30.5156 49.2429 30.5156H48.7571C47.0963 30.5156 45.5249 31.0933 44.2729 32.1252L47.7114 28.6875H59.5625V54.6875H57.9375V52.0818C57.9375 50.5332 57.3346 49.0772 56.2394 47.9811ZM62.8125 26.25V57.125C62.8125 57.5735 62.4485 57.9375 62 57.9375H36C35.5515 57.9375 35.1875 57.5735 35.1875 57.125V41.2114L36.8125 39.5864V54.6875C36.8125 55.5837 37.5413 56.3125 38.4375 56.3125H59.5625C60.4587 56.3125 61.1875 55.5837 61.1875 54.6875V28.6875C61.1875 27.7913 60.4587 27.0625 59.5625 27.0625H49.3364L50.9614 25.4375H62C62.4485 25.4375 62.8125 25.8015 62.8125 26.25ZM36 25.4375H42.9761L41.3511 27.0625H38.4375C37.5413 27.0625 36.8125 27.7913 36.8125 28.6875V31.6011L35.1875 33.2261V26.25C35.1875 25.8015 35.5515 25.4375 36 25.4375ZM25.4375 70.9375V54.6875H33.5625V57.125C33.5625 57.411 33.621 57.6824 33.712 57.9375H31.9375C31.0413 57.9375 30.3125 58.6663 30.3125 59.5625V62.8125C30.3125 63.7087 31.0413 64.4375 31.9375 64.4375H32.4274C32.0342 65.7131 31.4516 68.0101 31.2233 70.9375H25.4375ZM58.75 72.5625V69.3125C58.75 68.4163 58.0212 67.6875 57.125 67.6875H40.875C39.9788 67.6875 39.25 68.4163 39.25 69.3125V72.5625H32.7614C32.8719 68.6284 33.7518 65.5921 34.1369 64.4375H63.8639C64.249 65.5921 65.1289 68.6284 65.2394 72.5625H58.75ZM72.5625 70.9375H66.7767C66.5484 68.0101 65.9658 65.7131 65.5726 64.4375H66.0625C66.9587 64.4375 67.6875 63.7087 67.6875 62.8125V59.5625C67.6875 58.6663 66.9587 57.9375 66.0625 57.9375H64.288C64.379 57.6824 64.4375 57.411 64.4375 57.125V54.6875H72.5625V70.9375Z" fill="black"></path> </svg> 