<?xml version="1.0" encoding="UTF-8"?> <svg xmlns="http://www.w3.org/2000/svg" width="99" height="99" viewBox="0 0 99 99" fill="none"> <circle cx="49.0719" cy="49.0719" r="49.0719" fill="white"></circle> <path d="M72.5625 62.625H68.0612C68.8663 61.7339 69.3122 60.5759 69.3125 59.375C69.313 59.3204 69.3076 59.2659 69.2962 59.2125L67.7265 51.3613L70.0438 46.7382C70.1058 46.614 70.135 46.4759 70.1286 46.3372C70.1221 46.1985 70.0802 46.0638 70.0069 45.9459C69.9335 45.828 69.8312 45.7308 69.7097 45.6637C69.5881 45.5966 69.4514 45.5617 69.3125 45.5625H66.875C66.8751 44.7871 66.7634 44.0157 66.5435 43.2721C66.7898 43.3156 67.0393 43.3379 67.2894 43.3387C67.9637 43.3502 68.6258 43.1579 69.189 42.787C70.3492 42.0013 70.9375 40.4795 70.9375 38.263C70.9377 38.0628 70.864 37.8696 70.7306 37.7204C70.5971 37.5713 70.4133 37.4766 70.2144 37.4546C68.9438 37.3478 67.6813 37.7385 66.693 38.5441C66.0162 39.1763 65.5631 40.0112 65.4019 40.9231C64.91 40.2173 64.3104 39.593 63.625 39.0731V30.125C63.625 30.0013 63.5967 29.8793 63.5423 29.7682C63.488 29.6571 63.409 29.5599 63.3114 29.4839L55.9989 23.7964C55.8563 23.6854 55.6807 23.6251 55.5 23.625H42.5C42.3193 23.6251 42.1437 23.6854 42.0011 23.7964L34.6886 29.4839C34.591 29.5599 34.512 29.6571 34.4577 29.7682C34.4033 29.8793 34.375 30.0013 34.375 30.125V56.125H30.3125C30.097 56.125 29.8903 56.2106 29.738 56.363C29.5856 56.5153 29.5 56.722 29.5 56.9375V62.625H25.4375C25.222 62.625 25.0153 62.7106 24.863 62.863C24.7106 63.0153 24.625 63.222 24.625 63.4375V71.5625C24.625 71.778 24.7106 71.9847 24.863 72.137C25.0153 72.2894 25.222 72.375 25.4375 72.375H72.5625C72.778 72.375 72.9847 72.2894 73.137 72.137C73.2894 71.9847 73.375 71.778 73.375 71.5625V63.4375C73.375 63.222 73.2894 63.0153 73.137 62.863C72.9847 62.7106 72.778 62.625 72.5625 62.625V62.625ZM67.7687 39.7629C68.1962 39.4001 68.7209 39.1709 69.2776 39.1039C69.2879 39.5409 69.2048 39.9751 69.0339 40.3773C68.8629 40.7796 68.6081 41.1408 68.2863 41.4366C67.873 41.6889 67.3807 41.7784 66.9051 41.6877C66.9435 40.961 67.2514 40.2747 67.7687 39.7629V39.7629ZM63.625 41.2806C64.67 42.4624 65.2478 43.9849 65.25 45.5625H63.625V41.2806ZM67.9979 47.1875L66.1478 50.8868C66.0674 51.0485 66.0431 51.2323 66.0788 51.4092L67.6875 59.4514C67.6875 60.3133 67.3451 61.14 66.7356 61.7495C66.1261 62.359 65.2995 62.7014 64.4375 62.7014C63.5755 62.7014 62.7489 62.359 62.1394 61.7495C61.5299 61.14 61.1875 60.3133 61.1875 59.4514L62.7954 51.4076C62.8311 51.2306 62.8068 51.0468 62.7264 50.8852L60.8771 47.1875H67.9979ZM36 30.5223L42.7787 25.25H55.2213L62 30.5223V38.1257C61.4091 37.8621 60.7884 37.6712 60.1516 37.5569C60.2851 37.2635 60.361 36.9471 60.375 36.625C60.375 35.9785 60.1182 35.3585 59.6611 34.9014C59.204 34.4443 58.584 34.1875 57.9375 34.1875C57.3533 34.2339 56.7922 34.4359 56.3125 34.7725C55.8328 34.4359 55.2717 34.2339 54.6875 34.1875C54.1852 34.1896 53.6957 34.3468 53.2862 34.6377C52.8766 34.9286 52.5669 35.3389 52.3995 35.8125H39.25V37.4375H52.4198C52.5285 37.7224 52.6674 37.9947 52.8342 38.25C52.498 38.7299 52.2963 39.2909 52.25 39.875H39.25V41.5H52.8837C53.1104 41.7546 53.3882 41.9585 53.699 42.0985C54.0098 42.2385 54.3466 42.3114 54.6875 42.3125C55.2717 42.2661 55.8328 42.0641 56.3125 41.7275C56.7922 42.0641 57.3533 42.2661 57.9375 42.3125C58.584 42.3125 59.204 42.0557 59.6611 41.5986C60.1182 41.1415 60.375 40.5215 60.375 39.875C60.3679 39.6609 60.3293 39.449 60.2604 39.2461C60.8711 39.3916 61.4571 39.6256 62 39.9408V45.5625H59.5625C59.4236 45.5617 59.2869 45.5966 59.1653 45.6637C59.0438 45.7308 58.9415 45.828 58.8681 45.9459C58.7948 46.0638 58.7529 46.1985 58.7464 46.3372C58.74 46.4759 58.7692 46.614 58.8312 46.7382L61.1444 51.3646L59.5788 59.2125C59.5674 59.2659 59.562 59.3204 59.5625 59.375C59.5628 60.5759 60.0087 61.7339 60.8138 62.625H37.6039C37.9732 62.1466 38.2301 61.5912 38.3554 61H53.0625V59.375H46.7526C46.8541 58.5653 46.6671 57.7457 46.2245 57.0602C45.4388 55.9008 43.917 55.3125 41.7005 55.3125C41.5003 55.3123 41.3071 55.386 41.1579 55.5194C41.0088 55.6529 40.9141 55.8367 40.8921 56.0356C40.804 57.2273 41.1437 58.4112 41.85 59.375H38.3562C38.2242 58.7377 37.9413 58.1413 37.5313 57.6358C37.1214 57.1303 36.5963 56.7304 36 56.4695V30.5223ZM58.2154 38.8618C58.4773 39.1482 58.6614 39.4971 58.75 39.875C58.75 40.0905 58.6644 40.2972 58.512 40.4495C58.3597 40.6019 58.153 40.6875 57.9375 40.6875C57.5593 40.5984 57.21 40.4144 56.9227 40.1529C56.8464 40.0664 56.7527 39.9972 56.6476 39.9497C56.5425 39.9023 56.4286 39.8778 56.3133 39.8778C56.198 39.8778 56.0841 39.9023 55.979 39.9497C55.874 39.9972 55.7802 40.0664 55.7039 40.1529C55.4161 40.4146 55.0663 40.5986 54.6875 40.6875C54.472 40.6875 54.2653 40.6019 54.113 40.4495C53.9606 40.2972 53.875 40.0905 53.875 39.875C53.9634 39.4968 54.1475 39.1476 54.4096 38.861C54.4969 38.7847 54.5668 38.6907 54.6148 38.5852C54.6627 38.4796 54.6875 38.3651 54.6875 38.2492C54.6875 38.1333 54.6627 38.0187 54.6148 37.9132C54.5668 37.8077 54.4969 37.7136 54.4096 37.6374C54.1478 37.3512 53.9637 37.0026 53.875 36.625C53.875 36.4095 53.9606 36.2028 54.113 36.0505C54.2653 35.8981 54.472 35.8125 54.6875 35.8125C55.0657 35.9016 55.415 36.0856 55.7023 36.3471C55.7804 36.4305 55.8748 36.4969 55.9796 36.5423C56.0844 36.5877 56.1975 36.6111 56.3117 36.6111C56.4259 36.6111 56.5389 36.5877 56.6437 36.5423C56.7486 36.4969 56.8429 36.4305 56.9211 36.3471C57.2089 36.0854 57.5587 35.9014 57.9375 35.8125C58.153 35.8125 58.3597 35.8981 58.512 36.0505C58.6644 36.2028 58.75 36.4095 58.75 36.625C58.6616 37.0032 58.4775 37.3524 58.2154 37.639C58.1281 37.7153 58.0582 37.8093 58.0102 37.9148C57.9623 38.0204 57.9375 38.1349 57.9375 38.2508C57.9375 38.3667 57.9623 38.4813 58.0102 38.5868C58.0582 38.6923 58.1281 38.7864 58.2154 38.8626V38.8618ZM42.5406 56.9732C42.9776 56.9627 43.4118 57.0457 43.8141 57.2167C44.2165 57.3876 44.5776 57.6426 44.8733 57.9645C45.1259 58.3777 45.2156 58.87 45.1252 59.3458C44.3987 59.3085 43.7123 59.0014 43.2004 58.4845C42.8367 58.0566 42.6072 57.5309 42.5406 56.9732V56.9732ZM36.8125 60.1875C36.8125 60.834 36.5557 61.454 36.0986 61.9111C35.6415 62.3682 35.0215 62.625 34.375 62.625H32.5062C32.5062 62.625 36.5476 59.1483 36.5614 59.1313C36.7242 59.4597 36.8101 59.8209 36.8125 60.1875ZM34.375 57.75C34.7361 57.7522 35.092 57.8355 35.4166 57.9937L33.855 59.3311L32.2739 57.75H34.375ZM31.125 58.8989L32.6176 60.3914L31.125 61.6711V58.8989ZM71.75 70.75H26.25V64.25H71.75V70.75Z" fill="black"></path> <path d="M65.25 65.875H66.875V67.5H65.25V65.875Z" fill="black"></path> <path d="M68.5 67.5H70.125V69.125H68.5V67.5Z" fill="black"></path> <path d="M48.1875 34.1875H49.8125V30.125H51.4375V28.5H49.8125V26.875H48.1875V28.5H46.5625V30.125H48.1875V34.1875Z" fill="black"></path> <path d="M44.125 44.75H53.875V46.375H44.125V44.75Z" fill="black"></path> <path d="M44.125 48H53.875V49.625H44.125V48Z" fill="black"></path> <path d="M39.25 52.0625H58.75V53.6875H39.25V52.0625Z" fill="black"></path> </svg> 